<?xml version="1.0" standalone="no"?>
<!DOCTYPE svg PUBLIC "-//W3C//DTD SVG 20010904//EN"
 "http://www.w3.org/TR/2001/REC-SVG-20010904/DTD/svg10.dtd">
<svg version="1.0" xmlns="http://www.w3.org/2000/svg"
 width="272.000000pt" height="196.000000pt" viewBox="0 0 272.000000 196.000000"
 preserveAspectRatio="xMidYMid meet">
<metadata>
Created by potrace 1.16, written by Peter Selinger 2001-2019
</metadata>
<g transform="translate(0.000000,196.000000) scale(0.100000,-0.100000)"
fill="#000000" stroke="none">
<path d="M0 980 l0 -980 1360 0 1360 0 0 980 0 980 -740 0 -740 0 -11 -27 c-6
-16 -23 -77 -39 -136 -22 -84 -35 -114 -59 -139 -17 -17 -37 -50 -46 -72 l-15
-41 5 55 c14 156 40 242 92 306 l44 54 -605 0 -606 0 0 -980z m1940 890 c0 -5
-4 -10 -9 -10 -19 0 -113 -105 -138 -153 -56 -111 -87 -148 -202 -238 l-113
-89 -68 0 c-83 0 -125 -14 -219 -75 -40 -26 -75 -44 -78 -41 -16 16 90 196
127 216 12 7 47 20 78 31 31 11 88 45 131 78 104 80 262 182 373 241 94 50
118 58 118 40z m-1514 -322 c4 -6 17 -52 30 -102 18 -74 57 -205 91 -308 9
-29 -15 -21 -31 10 -8 15 -30 75 -49 133 -20 59 -42 121 -51 137 -27 53 -18
176 10 130z m650 -116 c0 -37 4 -115 9 -173 l8 -106 -54 -40 c-30 -22 -79 -52
-110 -65 -72 -33 -246 -135 -271 -160 -11 -11 -22 -17 -25 -14 -10 9 25 124
61 200 44 95 192 277 245 301 47 21 96 69 111 109 16 42 25 23 26 -52z m1298
-133 c56 -28 104 -54 109 -58 7 -7 -10 -71 -19 -71 -2 0 -33 20 -68 44 -109
74 -282 119 -319 82 -8 -8 -44 -25 -80 -37 l-65 -23 -49 21 c-45 21 -121 34
-188 34 l-30 -1 25 14 c14 7 66 19 115 25 50 7 95 15 100 16 6 2 91 4 189 4
l179 1 101 -51z m-946 -52 c8 -6 49 -8 106 -4 79 4 133 -3 116 -15 -3 -2 -25
-17 -50 -32 -71 -45 -130 -96 -162 -140 -16 -23 -44 -57 -63 -77 l-33 -36
-139 5 c-99 3 -146 1 -162 -7 -37 -20 -35 -5 6 41 22 24 54 63 73 88 81 106
126 151 175 175 51 25 103 26 133 2z m833 -126 c58 -19 63 -21 79 -21 24 0 6
-16 -31 -28 -70 -22 -129 -54 -129 -69 0 -9 20 -33 45 -55 52 -46 58 -63 18
-53 -16 4 -39 9 -53 12 -14 3 -32 6 -40 8 -8 2 -115 4 -237 4 -183 1 -223 3
-223 15 0 7 10 17 23 20 21 6 21 7 4 20 -11 8 -37 18 -59 21 -31 6 -46 16 -69
48 -16 22 -26 43 -23 46 3 3 105 7 227 7 191 1 232 4 292 22 89 26 110 26 176
3z m-1261 -119 c0 -5 -12 -19 -26 -33 -37 -35 -54 -72 -54 -121 0 -35 6 -48
36 -79 28 -29 37 -48 41 -83 5 -39 3 -47 -13 -51 -34 -11 -79 -35 -109 -60
l-30 -23 48 -13 c26 -7 47 -18 47 -25 0 -14 -79 -24 -87 -11 -3 5 -10 4 -16
-2 -7 -7 1 -22 26 -51 42 -46 45 -56 17 -63 -22 -6 -27 -36 -8 -55 7 -7 9 -12
5 -12 -12 0 -192 113 -204 129 -7 8 -13 33 -13 55 0 54 -13 71 -50 71 -26 0
-34 6 -46 35 -10 22 -11 31 -3 23 22 -22 49 3 49 47 0 56 36 146 75 185 21 20
58 41 97 54 35 12 88 37 118 56 50 33 100 46 100 27z"/>
</g>
</svg>
