<?xml version="1.0" encoding="utf-8"?>
<!DOCTYPE svg PUBLIC "-//W3C//DTD SVG 20010904//EN" "http://www.w3.org/TR/2001/REC-SVG-20010904/DTD/svg10.dtd">
<svg version="1.0" xmlns="http://www.w3.org/2000/svg" width="272px" height="196px" viewBox="0 0 272 196" preserveAspectRatio="xMidYMid meet">
 <g fill="#111111">
  <path d="M79 183.5 c0 -3.3 0.2 -3.5 3.5 -3.5 3.3 0 3.5 0.2 3.5 3.5 0 3.3 -0.2 3.5 -3.5 3.5 -3.3 0 -3.5 -0.2 -3.5 -3.5z"/>
  <path d="M25.3 173.8 c-4 -4.6 -5.5 -10.6 -4.8 -19.3 1.1 -13.2 7.4 -22.8 17.2 -26.5 9.2 -3.4 14.6 -2.4 15.6 3 0.5 2.1 1.2 3 2.7 3 1.1 0 2 0.7 2 1.5 0 1.1 1.2 1.5 5 1.5 l5 0 0 5.5 c0 6 1.3 8.1 6.9 11 3 1.5 3.1 1.5 3.1 -0.5 0 -1.6 0.7 -2 3.4 -2 2.8 0 3.5 0.4 4 2.5 0.5 2.1 1.2 2.5 4.1 2.5 3.3 0 3.5 0.2 3.5 3.3 0 1.7 -0.3 4.9 -0.6 7 -0.6 3.4 -0.9 3.7 -4 3.7 -3.3 0 -3.4 -0.1 -3.4 -4 0 -2.9 -0.4 -4 -1.5 -4 -0.8 0 -1.5 0.5 -1.5 1 0 0.6 -1.4 1 -3.2 1 -3.7 0 -17.8 -7.7 -17.8 -9.7 0 -0.7 -0.4 -1.3 -0.9 -1.3 -0.5 0 -1.2 -0.8 -1.4 -1.7 -0.3 -1.2 -0.5 -0.9 -0.6 0.8 -0.2 4.3 -6 14.9 -8.2 14.9 -1.2 0 -1.9 0.7 -1.9 2 0 1.2 -1.5 2.9 -4 4.5 -5.5 3.5 -15.6 3.6 -18.7 0.3z m19.7 -11.4 c0 -1.4 -0.3 -1.4 -1.5 -0.4 -0.8 0.7 -1.5 1.4 -1.5 1.6 0 0.2 0.7 0.4 1.5 0.4 0.8 0 1.5 -0.7 1.5 -1.6z"/>
 </g>
 <g fill="#2a2422">
  <path d="M77 184.7 c0 -4.4 1.5 -5.7 6.7 -5.7 4.2 0 4.3 0 4.3 3.5 0 4 -2 5.5 -7.4 5.5 -3.4 0 -3.6 -0.2 -3.6 -3.3z"/>
  <path d="M28 176.1 c-1.7 -0.5 -3.4 -2.4 -5.2 -6.1 -2.3 -4.4 -2.8 -6.7 -2.8 -12.7 0 -4.2 0.4 -7.3 1 -7.3 0.6 0 1 -1.4 1 -3 0 -3.4 2.5 -9 4 -9 0.6 0 1 -0.9 1 -1.9 0 -2.1 5.3 -7.1 7.5 -7.1 0.7 0 1.5 -0.6 1.7 -1.2 0.3 -0.9 2.9 -1.3 8.4 -1.3 l7.9 0 0.3 3.7 c0.3 3 0.7 3.8 2.2 3.8 2.7 0 3.3 3.3 2.8 13.4 -0.4 7.1 -0.9 9.1 -3.7 14.2 -5.3 9.3 -8.8 13.2 -12.9 14.4 -4.1 1.1 -9.4 1.2 -13.2 0.1z m13 -5.6 c4.2 -2.7 5.5 -4.4 1.8 -2.3 -2.9 1.5 -12.7 1.9 -15.3 0.6 -1.7 -0.9 -1.6 -0.7 0.4 1.6 3.2 3.4 7.8 3.4 13.1 0.1z m-5.2 -3 c1.2 -1.2 -1.4 -2.6 -3.8 -2.1 -2 0.3 -3.6 -0.1 -5.4 -1.5 -1.4 -1.1 -2.6 -1.7 -2.6 -1.2 0.1 2.8 5.8 6.5 9 5.8 1.4 -0.4 2.7 -0.8 2.8 -1z m4.2 -8.3 c4.9 -5.7 5.6 -6.8 5.2 -8 -0.2 -0.7 0.1 -1.2 0.7 -1.2 0.6 0 0.8 -0.7 0.5 -1.5 -0.4 -0.8 -0.2 -1.5 0.3 -1.5 1.3 0 0 -10.5 -1.5 -12.2 -0.6 -0.8 -0.8 -1.9 -0.4 -2.3 0.4 -0.5 0.2 -0.5 -0.5 -0.1 -0.6 0.3 -1.4 0.2 -1.8 -0.4 -1 -1.6 2.8 -1.2 5.3 0.6 2 1.3 2.2 1.3 2.2 0 0 -3.1 -3.6 -3.7 -9.2 -1.6 -5.6 2.1 -10 6.1 -13.2 12 -1.9 3.5 -1.9 3.5 3.2 -1.3 2.9 -2.6 5.7 -4.5 6.3 -4.2 0.5 0.4 1.6 0.2 2.3 -0.4 1.9 -1.6 4.3 1.2 2.7 3.1 -0.6 0.7 -3.6 4.5 -6.7 8.3 -3.1 3.9 -6 7.2 -6.5 7.3 -0.8 0.3 -1.4 -1.9 -1 -4 0 -0.5 -0.5 -0.7 -1.1 -0.5 -0.8 0.1 -1.2 -0.7 -1.1 -2.3 0.3 -2.2 0.2 -2.3 -0.8 -0.6 -1.6 2.6 -0.2 9.6 2.4 12.4 3.1 3.3 9.2 2.5 12.7 -1.6z m-3 -19.5 c0 -1.5 -1.5 0.1 -4.9 5 l-3.3 4.8 4.1 -4.5 c2.2 -2.5 4.1 -4.9 4.1 -5.3z m19 3.6 c0 -2 -0.3 -3.4 -0.6 -3.1 -0.9 1 -1.2 7.8 -0.3 7.2 0.5 -0.3 0.9 -2.1 0.9 -4.1z"/>
  <path d="M28.3 160.8 c-2.3 -3 -2.6 -4.3 -0.6 -2.5 1.1 0.9 2.4 1.7 2.9 1.7 0.6 0 3.7 -3.4 6.9 -7.6 6.2 -7.9 7.5 -8.1 5.5 -0.9 -2 7.2 -11.6 13.2 -14.7 9.3z"/>
  <path d="M83.5 168.9 c-6.2 -3.3 -10.9 -6.2 -12 -7.5 -0.5 -0.6 -2.1 -1.4 -3.5 -1.8 -1.4 -0.3 -4 -1.5 -5.7 -2.6 l-3.3 -2 0 -9.5 0 -9.5 4 0 c3.9 0 4 0.1 4 3.5 0 1.9 0.5 3.5 1 3.5 0.6 0 1 1.3 1 3 0 2.3 0.8 3.5 3.8 5.5 3 2.1 3.8 2.3 4 1 0.6 -2.7 9.2 -1.7 9.2 1.1 0 0.9 1.2 1.4 3.5 1.4 3.1 0 3.5 0.3 3.5 2.8 0 1.5 0.3 5.1 0.6 8 l0.7 5.2 -3.4 0 c-1.9 0 -5.2 -0.9 -7.4 -2.1z m6.5 -8.4 c0 -0.8 -0.4 -1.5 -1 -1.5 -0.5 0 -1 0.7 -1 1.5 0 0.8 0.5 1.5 1 1.5 0.6 0 1 -0.7 1 -1.5z m-13 -1 c0 -0.2 -1.3 -1.1 -3 -2 -3.8 -1.9 -4 -1.1 -0.2 0.9 3.1 1.7 3.2 1.8 3.2 1.1z m5.1 -3.6 c-0.9 -2.2 -1 -2.2 -1 -0.3 -0.1 1.1 0.2 2.4 0.6 2.7 1.2 1.2 1.4 0 0.4 -2.4z m-14.2 -2.2 c-1.3 -1.3 -2.8 -2.1 -3.2 -1.9 -0.5 0.2 0.4 1.3 2 2.3 3.7 2.5 4.1 2.4 1.2 -0.4z m-3.1 -9 c0.2 -3.4 -0.1 -4.7 -1 -4.7 -0.9 0 -1.3 1.6 -1.5 5.1 -0.2 6.5 2.1 6.1 2.5 -0.4z"/>
 </g>
 <g fill="#53201c">
  <path d="M68 186.7 c0 -1.1 -1.5 -1.7 -5.6 -2.2 l-5.5 -0.7 0.3 -4.1 c0.3 -3.8 0.6 -4.2 3.8 -4.9 1.9 -0.4 7.7 -0.5 12.8 -0.1 l9.2 0.6 0 3.1 c-0.1 1.7 -1.1 4.4 -2.4 6 -1.9 2.3 -3.4 3 -7.5 3.4 -4.2 0.4 -5.1 0.2 -5.1 -1.1z"/>
  <path d="M29.8 177.3 c-1 -0.2 -1.8 -1.3 -1.8 -2.4 0 -1.4 -0.7 -1.9 -2.5 -1.9 -1.8 0 -2.5 -0.5 -2.5 -1.9 0 -1.1 -0.5 -2.1 -1.1 -2.3 -1.5 -0.5 -2.5 -9.8 -1 -9.8 0.6 0 1.1 -0.7 1.1 -1.5 0 -0.8 -0.4 -1.5 -1 -1.5 -2.3 0 -0.3 -12.5 2.4 -15.3 0.7 -0.7 1.7 -2.3 2 -3.5 0.4 -1.2 1.1 -2.2 1.6 -2.2 0.4 0 1 -0.9 1.3 -2 0.3 -1.1 1.2 -2 2.1 -2 0.9 0 1.6 -0.4 1.6 -1 0 -0.5 0.5 -1 1.1 -1 0.6 0 1.7 -0.6 2.5 -1.4 3.5 -3.5 18.2 -3.1 19.1 0.5 0.3 1 1.2 1.9 1.9 1.9 0.8 0 1.4 0.9 1.4 1.9 0 1.1 0.5 2.1 1 2.3 0.6 0.2 1.5 4.1 2 8.8 0.7 6.6 1.4 8.9 3 10.2 2.7 2.2 2.5 2.8 -1 2.8 -2.6 0 -3.3 0.7 -5.5 5.1 -3 5.9 -9.7 13.4 -13.6 15.5 -2.6 1.3 -10.3 1.7 -14.1 0.7z m8.4 -4.3 c3.9 -1.1 10.2 -8 13.9 -15.2 4.3 -8.5 4.9 -20.8 1 -20.8 -1.4 0 -2.2 -1.1 -2.8 -3.7 -0.9 -3.7 -1 -3.8 -5.7 -3.7 -2.6 0 -5.1 0.5 -5.4 1 -0.4 0.5 -2 1.6 -3.7 2.4 -5.9 3 -12.5 16.3 -12.5 25 0 2 1.2 6.1 2.8 9.1 2.5 4.9 3.7 6 8.2 6.8 0.3 0 2.2 -0.4 4.2 -0.9z"/>
  <path d="M40 168.2 c0 -1.4 6.9 -7.6 7.7 -6.9 0.3 0.4 -0.4 1.9 -1.8 3.3 -2.7 2.9 -5.9 4.9 -5.9 3.6z"/>
  <path d="M26 162.5 c-1.8 -3.4 -1 -3.5 2.4 -0.3 2.5 2.5 2.6 2.8 0.9 2.8 -1.1 0 -2.6 -1.1 -3.3 -2.5z"/>
  <path d="M84 170.1 c0 -0.5 -0.9 -1.3 -2 -1.6 -1.1 -0.3 -2 -1.3 -2 -2.1 0 -0.8 -1 -1.4 -2.5 -1.4 -2 0 -2.5 -0.5 -2.5 -2.5 0 -1.4 0.3 -2.5 0.6 -2.5 0.3 0 3.3 1.6 6.5 3.5 6.3 3.7 7.9 4.2 7.9 2.5 0 -0.6 -0.6 -1 -1.2 -0.8 -0.7 0.2 -4 -1.4 -7.3 -3.5 -5.8 -3.6 -5.9 -3.7 -2.7 -3.7 2.2 0 3.2 0.5 3.2 1.5 0 0.9 0.9 1.5 2.3 1.5 3.5 0 6.4 3 6.5 6.8 0.1 3 -0.1 3.2 -3.4 3.2 -1.9 0 -3.4 -0.4 -3.4 -0.9z"/>
 </g>
 <g fill="#1e4a47">
  <path d="M41.5 173.1 c1.7 -1 3.2 -1.4 3.4 -0.8 0.5 1.2 -1.9 2.7 -4.4 2.7 -1.6 0 -1.5 -0.3 1 -1.9z"/>
  <path d="M38.9 167.9 c-1 -0.6 -0.7 -0.9 1.4 -0.9 2.9 0 3.5 0.5 1.4 1.3 -0.8 0.3 -2 0.1 -2.8 -0.4z"/>
  <path d="M83 166.5 c0 -1.7 0.2 -1.8 2.4 -0.9 2.3 0.9 2 2.4 -0.4 2.4 -1.1 0 -2 -0.7 -2 -1.5z"/>
  <path d="M50.4 160.6 c1.9 -3.2 4.1 -8.4 4.8 -11.5 1.1 -4.9 1.3 -5.2 1.7 -2.6 l0.4 3 0.7 -3 c0.7 -2.7 0.8 -2.5 0.9 1.6 0.1 5.3 -2.5 13.8 -4.5 14.6 -0.8 0.3 -1.4 1.1 -1.4 1.9 0 0.8 -0.7 1.4 -1.6 1.4 -1.5 0 -1.5 -0.3 0.1 -2.7 l1.8 -2.8 -3.2 3 -3.2 3 3.5 -5.9z"/>
  <path d="M85.2 164.1 c-1.5 -1.1 -2 -2.3 -1.6 -3.8 0.8 -2.9 4.4 -3.1 4.4 -0.3 0 2.7 1.8 2.5 2.3 -0.2 0.3 -1.5 0.5 -1 0.6 1.3 0.1 4.3 -2.3 5.6 -5.7 3z"/>
  <path d="M45.8 161.6 c-0.3 -1.4 -0.2 -2.6 0.2 -2.6 1.3 0 2.1 3.3 1.2 4.2 -0.6 0.6 -1.1 -0.1 -1.4 -1.6z"/>
  <path d="M75 161.5 c0 -1.9 0.9 -1.9 3.4 0 1.9 1.4 1.9 1.5 -0.7 1.5 -1.7 0 -2.7 -0.5 -2.7 -1.5z"/>
  <path d="M78.3 159.7 c-3.9 -2.2 -4.2 -3.7 -0.9 -3.7 2.6 0 4.9 2.2 4.4 4.3 -0.2 1.1 -1 1 -3.5 -0.6z"/>
  <path d="M42.2 156.6 c1.3 -1.9 2.3 -3.4 2.4 -3.3 0.1 0.1 -0.1 1.7 -0.3 3.5 -0.4 2.3 -1.1 3.2 -2.4 3.2 -1.8 0 -1.8 -0.2 0.3 -3.4z"/>
  <path d="M65 155.5 c0 -1.3 0.4 -1.4 2.3 -0.4 3.3 1.7 3.3 1.9 0.4 1.9 -1.8 0 -2.7 -0.5 -2.7 -1.5z"/>
  <path d="M68.8 153.8 c-2.3 -1.6 -2.8 -2.7 -2.8 -6.4 0 -4.4 0 -4.4 3.5 -4.4 2.4 0 3.5 0.5 3.5 1.5 0 0.8 0.9 1.5 2 1.5 1.1 0 2 0.5 2 1 0 0.6 0.7 1 1.5 1 1 0 1.5 1.1 1.5 3.5 0 3.3 -0.2 3.5 -3.5 3.5 -2.1 0 -3.5 -0.5 -3.6 -1.2 0 -0.7 -0.3 -0.5 -0.7 0.4 -0.6 1.5 -0.9 1.5 -3.4 -0.4z"/>
  <path d="M47.2 141.9 c-0.1 -2.8 -0.9 -5.6 -2.1 -7.1 -1.9 -2.4 -1.9 -2.4 0.2 -2.5 1.2 -0.1 2.7 0.3 3.4 0.9 1 0.8 1.3 0.5 1.3 -1.1 0 -1.5 0.4 -2 1.3 -1.5 0.8 0.5 0.9 0.4 0.2 -0.4 -0.5 -0.5 -1.9 -1.2 -3 -1.5 -1.1 -0.3 -0.2 -0.5 2 -0.4 3.3 0.2 4.3 0.8 6.2 3.6 1.5 2.2 2.3 4.8 2.2 7.5 0 2.3 -0.3 3.5 -0.6 2.7 -0.4 -1 -0.7 -1.1 -1.3 -0.1 -0.5 0.8 -1 0.2 -1.5 -1.9 -0.5 -2.2 -1.2 -3.1 -2.6 -3.1 -1 0 -1.9 0.6 -1.9 1.3 0 0.8 -0.3 0.7 -1 -0.3 -0.8 -1.3 -1 -1.3 -1.4 0 -0.3 0.8 -0.7 3.1 -0.9 5 -0.3 3 -0.4 2.8 -0.5 -1.1z"/>
  <path d="M40.3 138.5 c-0.9 -2.5 0.4 -2.9 1.7 -0.6 0.7 1.5 0.7 2.1 0 2.1 -0.6 0 -1.3 -0.7 -1.7 -1.5z"/>
  <path d="M35 130 c0 -1.7 0.7 -2 3.8 -2 3.5 0.1 3.6 0.1 1.4 1.3 -1.2 0.7 -1.9 1.6 -1.6 2 0.4 0.4 -0.2 0.7 -1.4 0.7 -1.5 0 -2.2 -0.6 -2.2 -2z"/>
 </g>
 <g fill="#454139">
  <path d="M70 188 c0 -0.5 -1.8 -1 -4 -1 -2.2 0 -4 -0.4 -4 -0.9 0 -0.5 -1.2 -1.1 -2.7 -1.3 -2.3 -0.2 -2.9 -0.8 -3.1 -3.5 -0.5 -5.5 1.2 -7.3 6.8 -7.3 2.8 0 5 0.5 5 1 0 0.6 1.5 1 3.4 1 1.9 0 3.6 0.4 3.8 0.9 0.2 0.5 1.4 0.7 2.8 0.4 1.8 -0.3 2.9 -1.4 3.6 -3.6 0.6 -1.8 1.4 -3.9 1.7 -4.7 0.7 -1.7 -4.9 -5 -8.3 -5 -1.1 0 -2 -0.4 -2 -0.8 0 -0.4 -1.6 -1.4 -3.5 -2.1 -2.3 -0.8 -3.5 -1.9 -3.5 -3.1 0 -1 -0.7 -2 -1.5 -2.4 -0.8 -0.3 -1.5 -1 -1.5 -1.6 0 -0.6 1.9 -0.1 4.3 1.1 4.3 2.2 18.8 10.9 19.7 11.9 1.2 1.2 3.8 0.7 3.3 -0.7 -0.3 -0.8 -1.2 -1.2 -1.9 -0.9 -0.8 0.3 -1.4 0.1 -1.4 -0.4 0 -0.6 -0.5 -1 -1.1 -1 -0.6 0 -2.5 -1 -4.2 -2.2 -1.8 -1.3 -4.8 -3.1 -6.7 -4.2 -7.2 -3.9 -8.4 -5.4 -9.5 -11.8 -1 -6.3 -3 -8.7 -3.8 -4.6 -0.3 1.5 -0.5 1 -0.6 -1.4 -0.1 -3.7 0 -3.8 3.4 -3.8 3.2 0 3.5 0.2 3.5 3 0 2.4 0.6 3.3 2.6 4 1.4 0.6 4 2.1 5.7 3.4 1.8 1.4 4.5 2.8 6.1 3.2 1.6 0.4 3.1 1.5 3.3 2.5 0.4 1.2 1.6 1.9 4.2 2.1 l3.6 0.3 0.7 6 c0.4 3.3 1 8.1 1.4 10.8 l0.6 4.7 -3.6 0 -3.6 0 0 4.5 c0 3.3 -0.4 4.5 -1.5 4.5 -0.8 0 -1.5 0.6 -1.5 1.4 0 0.9 -2 1.5 -6.1 2 -8.4 0.8 -9.9 0.8 -9.9 -0.4z m7.8 -5.8 c2.4 -1.5 3 -4.2 1 -4.2 -1.9 0.1 -4.5 2.4 -4.1 3.6 0.2 0.6 -0.7 1.6 -1.9 2.2 -2.3 1.2 -2.3 1.2 0.2 0.6 1.4 -0.4 3.5 -1.4 4.8 -2.2z m5.8 1.3 c1.6 -1.2 1.6 -1.4 0.3 -1.5 -0.9 0 -2.2 0.7 -2.9 1.5 -1.6 1.9 0 1.9 2.6 0z m-13.7 -3.4 c0.9 -1.5 0.7 -2 -0.9 -2.4 -2.8 -0.7 -8.3 0.6 -8.8 2.2 -0.3 1 0.2 1.2 2.1 0.7 1.4 -0.3 2.9 -0.2 3.2 0.4 1 1.6 3.3 1.2 4.4 -0.9z m20.1 -20.1 c0 -1.1 -0.4 -2 -0.9 -2 -0.5 0 -1.1 0.9 -1.4 2 -0.3 1.3 0 2 0.9 2 0.8 0 1.4 -0.9 1.4 -2z m-7.4 -4.5 c-0.7 -1.8 -2.6 -2 -2.6 -0.2 0 1.8 2.4 4.1 2.8 2.7 0.2 -0.6 0.1 -1.7 -0.2 -2.5z"/>
  <path d="M47.6 167.8 c5.2 -5.7 6 -7.5 1.4 -3.3 l-4.3 4 3.8 -4.7 c2.1 -2.6 4.2 -4.5 4.7 -4.2 0.4 0.3 0.5 -0.3 0.1 -1.2 -0.3 -1 -0.2 -1.5 0.3 -1.2 0.5 0.4 1 -0.4 1.1 -1.5 0.1 -1.2 0.6 -5.9 1 -10.4 0.5 -4.4 0.5 -7.9 0.2 -7.7 -1 0.6 -2 -2.6 -1.2 -3.8 0.3 -0.6 0.1 -0.8 -0.4 -0.5 -0.6 0.4 -1.9 -0.3 -2.9 -1.5 -1.1 -1.2 -1.3 -1.8 -0.5 -1.3 1 0.5 1.2 0.4 0.7 -0.3 -0.4 -0.7 -1.6 -1.2 -2.7 -1.2 -1 0 -1.9 -0.4 -1.9 -1 0 -0.5 1.5 -1 3.3 -1 3.7 0 6.9 2.7 8.6 7.3 1.8 4.7 1.3 18 -0.8 23.7 -2.2 5.7 -8.6 13 -11.5 13 -1.8 0 -1.7 -0.3 1 -3.2z m10.1 -25 c-0.2 -1.3 -0.4 -0.3 -0.4 2.2 0 2.5 0.2 3.5 0.4 2.3 0.2 -1.3 0.2 -3.3 0 -4.5z"/>
  <path d="M39.2 168.3 c-0.6 -0.3 -1 -0.9 -0.6 -1.4 0.3 -0.5 -0.2 -0.9 -1 -0.9 -3 0 -2.4 -1.8 2.2 -6.6 4.8 -5 4.8 -5 4.4 -1.9 -0.4 2.4 -0.2 2.8 0.9 1.8 1.9 -1.9 2.5 -1.6 2.4 1.1 0 3.8 -5.4 8.9 -8.3 7.9z"/>
  <path d="M34 130.5 c0 -2.2 0.4 -2.5 3.7 -2.5 3.6 0 3.6 0 1.7 1.8 -1 1 -2.7 2.1 -3.6 2.5 -1.4 0.5 -1.8 0.1 -1.8 -1.8z"/>
 </g>
 <g fill="#793528">
  <path d="M62.5 187.4 c-2.2 -0.7 -10.5 -3.2 -18.5 -5.4 -8 -2.3 -15.6 -4.6 -17 -5.3 -1.4 -0.7 -3.6 -3.5 -5 -6.2 -2.1 -4.2 -2.5 -6.4 -2.5 -14 0 -8.1 0.3 -9.7 3.2 -15.8 2 -4.2 4 -7.1 5.2 -7.4 1.1 -0.3 2.1 -1.3 2.4 -2.4 0.8 -3 8.3 -5.9 15.2 -5.9 7.7 0 10.5 1.5 13 6.7 1.5 3.1 2.6 4.2 4.3 4.3 1.3 0 2.2 0.6 2.2 1.5 0 0.8 -0.6 1.5 -1.4 1.5 -1.1 0 -1.5 1.7 -1.8 6.5 l-0.3 6.5 12.5 7.2 c6.9 3.9 12.8 7.5 13.2 8.1 0.3 0.6 0.4 1.7 0.1 2.6 -0.4 1.3 -0.2 1.3 1 -0.1 1.5 -1.8 2.7 -1.4 2.7 0.9 0 0.7 -1 1.3 -2.3 1.3 -2 0 -2.2 0.4 -1.9 4.5 0.3 3.7 0.1 4.5 -1.3 4.5 -0.9 0 -2.9 1 -4.3 2.1 l-2.7 2.2 2.8 -0.5 c2.3 -0.5 2.7 -0.2 2.7 1.8 0 2.3 -0.2 2.4 -8.7 2.3 -4.9 0 -10.6 -0.7 -12.8 -1.5z m15.2 -4.2 c2.3 -2 2.9 -3.2 2.3 -4.2 -0.7 -1.2 -1.2 -1.2 -3.5 0 -1.4 0.7 -2.4 1.9 -2.1 2.6 0.3 0.7 -0.4 1.6 -1.6 2 -1.6 0.5 -1.8 0.8 -0.7 1.5 1.9 1.2 2 1.2 5.6 -1.9z m-8.1 -2 c0.6 -1.2 1.4 -2 1.7 -1.7 0.4 0.3 0.3 0 -0.2 -0.6 -0.5 -0.6 -2.9 -1.2 -5.5 -1.4 -3.8 -0.3 -4.8 0 -5.6 1.6 -0.9 1.5 -0.7 2.1 0.6 2.6 0.9 0.3 2 0 2.4 -0.7 0.7 -1.1 1.1 -1 2.4 0.3 1.2 1.1 1.3 1.7 0.3 2.1 -0.6 0.3 -0.3 0.5 0.8 0.3 1.1 -0.1 2.5 -1.2 3.1 -2.5z m-28.8 -7.6 c3.9 -2.1 10.5 -9.2 9.7 -10.5 -0.4 -0.7 -0.1 -1 0.7 -0.9 0.7 0.2 1.2 -0.5 1.2 -1.4 -0.1 -1 0.2 -1.6 0.6 -1.3 0.4 0.2 1.2 -0.7 1.9 -2.1 0.9 -2 0.9 -2.4 -0.1 -1.9 -0.7 0.4 -0.5 0 0.5 -0.8 1.8 -1.5 2.4 -3.2 0.7 -2.2 -1.5 0.9 -1.2 -0.4 0.5 -2.1 2 -2 1.9 -8.4 -0.2 -11.3 -0.9 -1.4 -1.1 -2.1 -0.4 -1.7 1.7 1.1 -0.6 -2.8 -3.7 -6.2 -1.7 -2 -3.2 -2.5 -6.6 -2.5 -6.7 0 -13.2 4.6 -18 12.9 -3.3 5.6 -4 7.7 -4.3 13.8 -0.5 8.9 2.2 15.1 7.7 17.8 4.2 2.2 6.3 2.2 9.8 0.4z m35.2 -2 c0 -1 1.3 -1.6 3.5 -1.8 3.3 -0.3 3 -0.5 -7.5 -6.5 -6 -3.5 -11.1 -6.3 -11.4 -6.3 -0.2 0 -0.6 0.7 -1 1.5 -0.4 1.1 0.9 2.2 4.4 4 4.3 2.2 5 2.9 5 5.5 0 2.5 0.4 3 2.5 3 1.4 0 2.5 0.5 2.5 1 0 0.6 0.5 1 1 1 0.6 0 1 -0.6 1 -1.4z"/>
  <path d="M84.9 163.2 c-1.3 -1 -5.6 -3.7 -9.6 -6.1 -8.9 -5.3 -12.1 -8.8 -3.8 -4.1 3.3 1.8 7.1 4.1 8.5 5 1.4 0.8 3.7 2.2 5.3 3 1.5 0.7 2.7 1.9 2.7 2.7 0 1.7 -0.3 1.7 -3.1 -0.5z"/>
  <path d="M90.7 158.9 c-0.4 -1.5 -1.1 -2 -2.1 -1.6 -1.1 0.5 -1.6 0 -1.6 -1.3 0 -1.6 0.7 -2 3.5 -2 3.3 0 3.5 0.2 3.5 3.5 0 3.9 -2.4 4.9 -3.3 1.4z"/>
  <path d="M65.6 145.8 c-1.1 -4.2 -0.7 -5.8 1.4 -5.8 1.8 0 2 0.6 1.8 4 -0.2 4.4 -2.2 5.4 -3.2 1.8z"/>
  <path d="M153 65.5 c0 -3.3 0.2 -3.5 3.5 -3.5 3.3 0 3.5 0.2 3.5 3.5 0 3.3 -0.2 3.5 -3.5 3.5 -3.3 0 -3.5 -0.2 -3.5 -3.5z"/>
 </g>
 <g fill="#5f6a66">
  <path d="M66.3 186.8 c-4 -0.5 -7.3 -1.4 -7.3 -1.9 0 -0.5 -1.1 -0.9 -2.4 -0.9 -2.3 0 -4.4 -1.6 -3.4 -2.5 0.2 -0.3 2.1 0 4.2 0.6 2.8 0.8 4.1 0.7 5.2 -0.2 1.1 -0.9 1.8 -0.9 2.6 -0.1 0.9 0.9 0.8 1.2 -0.2 1.3 -2.4 0.1 4.3 2.8 7 2.8 1.6 0.1 4.4 -1.7 8 -5 3 -2.8 4.9 -4.7 4.1 -4.3 -1 0.5 -1.3 0.3 -0.8 -0.9 0.3 -0.9 0.1 -1.7 -0.4 -1.9 -0.7 -0.2 -0.6 -1.3 0.2 -3.2 1.1 -2.4 1.1 -2.9 -0.4 -3.7 -3 -1.7 -1.8 -3 1.3 -1.4 1.9 1 3 2.3 3 3.8 0.1 2.1 0.1 2.1 1.5 0.4 1.3 -1.8 1.4 -1.7 3 1 0.9 1.5 1.3 1.9 0.9 0.8 -1.5 -4.6 -2.1 -8.3 -1.6 -11.3 0.3 -2.3 0 -3.2 -1 -3.2 -2.5 0 -3.8 2.1 -2.7 4.2 1.8 3.4 0.5 3.8 -3.6 1.1 -2.2 -1.4 -6.9 -4.4 -10.5 -6.7 -3.5 -2.2 -6.4 -4.5 -6.4 -5.1 0 -0.5 -0.3 -2.7 -0.6 -4.7 -0.7 -3.7 -0.7 -3.8 2.4 -3.8 1.9 0 5.1 1.3 8.1 3.4 2.8 1.8 6 3.6 7.3 4 1.2 0.4 2.2 1.4 2.2 2.2 0 0.9 1.1 1.4 3.3 1.4 l3.4 0 1.1 7.8 c1.6 10.5 1.6 14.2 -0.3 14.2 -1 0 -1.5 1 -1.5 3.3 0 1.8 -0.9 4.3 -2.3 5.9 -1.9 2.4 -3.1 2.8 -9.2 3.2 -3.8 0.2 -10.3 0 -14.2 -0.6z m17.4 -3.3 c1.8 -1.6 2.3 -2.4 1.3 -2.4 -1.5 0 -6 3.2 -6 4.3 0 1.3 2 0.5 4.7 -1.9z m-0.7 -26.5 c0 -2.5 -0.6 -3.2 -3.7 -4.5 -2 -0.9 -5.2 -2.7 -7.1 -4.1 -1.8 -1.4 -3.6 -2.4 -3.9 -2.1 -0.3 0.3 2 2.2 5.1 4.3 3.1 2 5.6 4.1 5.6 4.7 0 1 2.9 4.7 3.7 4.7 0.1 0 0.3 -1.3 0.3 -3z"/>
  <path d="M69.1 182.3 c0.8 -0.9 2.2 -2.5 3.2 -3.5 1 -1 1.5 -2.3 1.2 -2.8 -0.4 -0.6 0.7 -1 2.5 -1 2.8 0 3 0.2 2 2.1 -0.6 1.1 -1.8 2.3 -2.6 2.6 -0.8 0.3 -1.4 1.1 -1.4 1.8 0 1.4 -2.1 2.5 -4.7 2.5 -1.3 0 -1.3 -0.2 -0.2 -1.7z"/>
  <path d="M56.7 180.3 c-0.4 -0.3 -0.7 -1.4 -0.7 -2.3 0 -2.4 -3 -4.9 -6.8 -5.6 -1.8 -0.4 -3.2 -1 -3.2 -1.4 0 -1.7 2.7 -1.6 7.3 0.1 2.6 1.1 7.3 2 10.5 2 3.1 0.1 4.9 0.3 4 0.6 -1 0.2 -1.8 1.1 -1.8 1.9 0 0.8 -1 1.4 -2.5 1.4 -1.4 0 -2.9 0.8 -3.5 2 -1.1 2.1 -2.2 2.5 -3.3 1.3z"/>
  <path d="M54.7 162.3 c-0.4 -0.6 0.4 -3.5 1.8 -6.4 1.8 -4.1 2.4 -4.8 2.4 -2.9 0.1 3.3 -3.3 10.8 -4.2 9.3z"/>
  <path d="M73.8 161.2 c-1.6 -0.9 -2.8 -2 -2.8 -2.5 0 -0.7 5.6 2.1 7.9 4 1.5 1.2 -2.9 -0.1 -5.1 -1.5z"/>
  <path d="M57 137.4 c-1.3 -3.3 -1.3 -3.4 0.5 -3.4 1 0 1.5 1 1.5 3 0 3.7 -0.7 3.8 -2 0.4z"/>
 </g>
 <g fill="#b64b2f">
  <path d="M47.8 183.6 c-16 -4.6 -17.8 -5.3 -17.8 -7.3 0 -2.5 -1 -2.6 19.5 3.3 19.5 5.7 22.5 6.7 22.5 8.1 0 2.2 -5.7 1.3 -24.2 -4.1z"/>
  <path d="M73 187.6 c0 -0.8 1.3 -1.9 2.9 -2.4 2.4 -0.8 3.1 -0.7 3.5 0.5 1.1 2.7 0.6 3.3 -2.9 3.3 -2.3 0 -3.5 -0.5 -3.5 -1.4z"/>
  <path d="M72 180.4 c0 -0.3 0.5 -1.4 1 -2.5 0.8 -1.5 0.7 -1.9 -0.5 -1.9 -0.8 0 -1.5 -0.4 -1.5 -1 0 -0.5 -1.1 -1 -2.5 -1 -1.4 0 -2.5 0.5 -2.5 1 0 0.6 -1.1 1 -2.5 1 -1.6 0 -2.5 -0.6 -2.5 -1.5 0 -0.8 0.7 -1.5 1.6 -1.5 0.9 0 1.4 -0.6 1.1 -1.2 -0.2 -0.7 0.3 -1.8 1.2 -2.4 1.2 -1 0.5 -1.7 -4.7 -4.3 -3.4 -1.7 -6.2 -3.3 -6.2 -3.5 0 -0.2 1 -2.7 2.3 -5.5 l2.2 -5.1 14.3 8 c15.2 8.7 15.7 9.2 12.7 15 -1.6 3 -3.2 4.2 -2.2 1.6 0.3 -0.8 -0.1 -1.7 -0.9 -2 -2.6 -1 -3.2 -0.7 -3.8 1.7 -0.5 1.9 -6.6 6.6 -6.6 5.1z"/>
  <path d="M87.8 176.4 c-0.3 -0.5 0 -2.7 0.7 -4.9 l1.3 -4 0.1 3.5 c0.1 3.6 -1.3 6.9 -2.1 5.4z"/>
  <path d="M55 174 c-0.8 -0.5 -1.2 -1.2 -0.8 -1.5 0.8 -0.8 5.8 0.5 5.8 1.6 0 1.2 -3.1 1.1 -5 -0.1z"/>
  <path d="M20 164.5 c0 -2.2 0.5 -3.5 1.3 -3.5 0.8 0 1.8 1.6 2.4 3.5 1.1 3.3 1 3.5 -1.3 3.5 -2.1 0 -2.4 -0.5 -2.4 -3.5z"/>
  <path d="M76.5 157.6 c-6.9 -4.4 -10.1 -7 -10.3 -8.4 -0.5 -3 1 -2.8 6.8 1.1 5.3 3.4 5.9 4.4 3.4 4.9 -0.9 0.2 1.2 1.9 5 4.1 6.1 3.4 7.8 4.8 5.9 4.6 -0.5 0 -5.3 -2.9 -10.8 -6.3z"/>
  <path d="M74 148.7 c-2.9 -1.8 -3.1 -2.2 -1.5 -2.6 1.1 -0.2 2.1 0.2 2.3 0.8 0.2 0.6 1 1.1 1.8 1.1 0.8 0 1.4 0.7 1.4 1.5 0 1.9 0.2 1.9 -4 -0.8z"/>
  <path d="M65.4 142.5 c-0.6 -3.4 -0.9 -3.6 -4 -3.3 -3.1 0.2 -3.5 -0.1 -5.7 -4.5 l-2.4 -4.7 2.8 0 c2.2 0 3 0.6 3.5 2.5 0.4 1.8 1.3 2.5 3 2.5 1.5 0 2.4 0.6 2.4 1.5 0 0.8 0.9 1.5 2.1 1.5 1.7 0 2 0.5 1.7 3.7 -0.4 4.9 -2.5 5.4 -3.4 0.8z"/>
  <path d="M38 127.4 c0 -2.1 0.5 -2.4 3.5 -2.4 2.2 0 3.5 0.5 3.5 1.3 0 0.8 -1.6 1.8 -3.5 2.4 -3.3 1.1 -3.5 1 -3.5 -1.3z"/>
  <path d="M160 71.5 c0 -3.3 -0.2 -3.5 -3.5 -3.5 -3.3 0 -3.5 -0.2 -3.5 -3.4 0 -3.8 1.2 -4.6 7.1 -4.6 3.8 0 3.9 0.1 3.9 3.4 0 1.9 -0.6 3.7 -1.2 3.9 -0.7 0.3 0.2 0.6 2 0.6 3 0.1 3.2 0.3 3.2 3.6 0 3.4 -0.1 3.5 -4 3.5 -3.9 0 -4 -0.1 -4 -3.5z"/>
 </g>
 <g fill="#49ac76">
  <path d="M88.2 179.5 c0.4 -0.4 0.4 -1.5 -0.1 -2.4 -0.9 -1.7 0.5 -8.1 1.7 -8.1 1.2 0 3.4 5.8 3 8.2 -0.2 1.6 -1.1 2.4 -2.8 2.6 -1.4 0.2 -2.2 0.1 -1.8 -0.3z"/>
  <path d="M158 73.1 l0 -4.1 5.1 0 5 0 -0.3 3.8 c-0.3 3.7 -0.3 3.7 -5 4 l-4.8 0.3 0 -4z"/>
  <path d="M154 65.1 c0 -2.3 1.4 -4.3 6.3 -9 5.3 -5.2 6.7 -6.1 10 -6.1 l3.7 0 0 5 c0 4.7 -0.2 5 -4.2 7.7 -5.7 3.8 -9.3 5.3 -12.8 5.3 -2.6 0 -3 -0.4 -3 -2.9z"/>
  <path d="M87 38.5 c0 -3.3 0.2 -3.5 3.5 -3.5 3.3 0 3.5 0.2 3.5 3.5 0 3.3 -0.2 3.5 -3.5 3.5 -3.3 0 -3.5 -0.2 -3.5 -3.5z"/>
  <path d="M120 23.5 c0 -3.3 0.2 -3.5 3.5 -3.5 3.3 0 3.5 0.2 3.5 3.5 0 3.3 -0.2 3.5 -3.5 3.5 -3.3 0 -3.5 -0.2 -3.5 -3.5z"/>
 </g>
 <g fill="#dd434c">
  <path d="M64.5 193.3 c-6.6 -1.6 -36.4 -10.7 -38.6 -11.9 -12 -6.2 -15.5 -27.2 -7.2 -43.8 3.1 -6.1 10.8 -14.5 15 -16.2 5 -2.1 15.9 -1.8 20.8 0.6 4.6 2.2 6.5 5.3 6.5 10.5 0 4.7 -2.3 4.6 -6.4 -0.1 -10.7 -12.4 -32.2 4.1 -32.1 24.6 0.1 7.2 2.8 13.8 6.8 16.4 1.2 0.8 10.9 4 21.6 7.1 18.1 5.2 25.5 6.3 26.8 4.2 0.3 -0.5 0.9 -0.3 1.3 0.3 0.6 1 1.7 0.8 4.5 -0.8 2 -1.2 3.8 -2.2 4.1 -2.2 0.3 0 0.4 1.7 0.2 3.8 -0.3 3.4 -0.6 3.8 -4 4.6 -2.1 0.5 -3.8 1.5 -3.8 2.3 0 1 -1.8 1.3 -6.7 1.2 -3.8 -0.1 -7.7 -0.3 -8.8 -0.6z"/>
  <path d="M90.7 157.9 c-0.4 -1.5 -1.1 -2 -2.1 -1.6 -1.2 0.5 -1.6 0 -1.6 -1.8 0 -2.2 0.4 -2.5 3.5 -2.5 3.4 0 3.5 0.1 3.5 4 0 4.4 -2.3 5.7 -3.3 1.9z"/>
  <path d="M163.3 73.9 c2.1 -1.2 2.3 -3.3 0.2 -2.5 -1 0.4 -1.5 -0.1 -1.5 -1.4 0 -1.7 -0.5 -1.8 -5 -1.3 l-5 0.6 0 -3.9 c0 -3.3 0.5 -4.2 3.1 -5.6 1.7 -1 4.5 -1.8 6.2 -1.8 l3 0 -2.3 2.5 c-1.3 1.3 -3.1 2.7 -4.2 3.1 -1 0.3 -1.8 1 -1.8 1.5 0 0.5 1.8 0 4.1 -1.1 l4.1 -2.1 -0.7 3 c-0.6 2.9 -0.5 3.1 2.4 3.1 2.9 0 3.1 0.3 3.1 3.5 0 3.4 -0.1 3.5 -3.7 3.5 -3.1 -0.1 -3.5 -0.3 -2 -1.1z"/>
  <path d="M171 55 c0 -2.3 -1 -2.6 -2.8 -0.8 -0.9 0.9 -1.2 0.5 -1.2 -2.1 0 -3.1 0.1 -3.2 3.8 -2.9 3.5 0.3 3.7 0.5 4 4.1 0.3 3.2 0 3.7 -1.7 3.7 -1.4 0 -2.1 -0.6 -2.1 -2z"/>
  <path d="M103 41.5 c0 -1.9 0.5 -3.5 1 -3.5 0.6 0 1 -0.7 1 -1.5 0 -1 1.1 -1.5 3.5 -1.5 3.2 0 3.5 0.3 3.5 2.8 0 5.9 -0.9 7.2 -5.1 7.2 -3.8 0 -3.9 -0.1 -3.9 -3.5z"/>
 </g>
 <g fill="#ff3f47">
  <path d="M0 98 l0 -98 59.5 0 c57.5 0 59.5 0.1 59.5 1.9 0 1 -0.7 2.4 -1.5 3.1 -2.7 2.3 -6.2 11.5 -8.2 22 -0.5 2.4 -0.5 2.4 0.9 0.6 1.2 -1.5 2.3 -1.8 5.6 -1.3 4 0.5 6.3 -0.5 4.2 -1.8 -1.4 -0.8 -1.3 -10.3 0.2 -18.1 l1.1 -6.4 75.4 0 75.3 0 0 98 0 98 -97 0 c-85.6 0 -97 -0.2 -97 -1.5 0 -0.8 0.7 -1.5 1.5 -1.5 0.8 0 1.5 -0.4 1.5 -0.9 0 -0.5 1.4 -1.4 3 -2 1.7 -0.5 3 -1.5 3 -2.1 0 -0.6 1.8 -3.8 4 -7.2 6.7 -10.3 6.8 -11.4 2.1 -21 -2.3 -4.6 -4.1 -9.8 -4.1 -11.6 0 -2.5 -0.4 -3.2 -2 -3.2 -1.6 0 -2 -0.7 -2 -3.5 0 -3.7 3 -7.3 8.5 -10.2 5.2 -2.7 5.3 -4.7 0.9 -11.3 -1.3 -1.9 -2.4 -4.5 -2.4 -5.7 0 -1.3 -0.5 -2.3 -1.1 -2.3 -0.8 0 -1 -1.6 -0.6 -4.9 l0.6 -4.9 -5.5 0.5 -5.4 0.6 0 -4 c0 -4 1.4 -6.3 3.8 -6.3 0.7 0 5.8 -2.9 11.2 -6.5 11 -7.2 11.2 -7.6 12.6 -20.1 0.5 -4.7 0.2 -6.8 -1 -9.2 -0.9 -1.8 -1.9 -3.2 -2.2 -3.2 -0.3 0 -2 1 -3.7 2.3 -2.4 1.6 -4.6 2.2 -8.4 2.2 -5.3 0 -5.3 0 -5.9 3.5 -0.3 1.9 -0.7 4.6 -1 5.9 -0.7 3.3 -12.8 15.1 -15.5 15.1 -1.8 0 -2 0.4 -1.4 4.4 0.5 2.9 0.1 6.3 -0.9 10 -1.1 3.6 -1.4 7.4 -1.1 10.8 0.6 5.8 -2.4 17 -5.8 21.8 -1.8 2.4 -1.8 2.5 -3.2 0.6 -0.8 -1.1 -1.5 -2.3 -1.5 -2.7 0 -1.4 -8.7 -4.9 -12.3 -4.9 -2.1 0 -5.2 0.6 -7 1.4 -3.9 1.6 -12 10.2 -14.4 15 -0.9 2 -2.2 3.6 -2.9 3.6 -1.9 0 -3.4 5.7 -3.4 12.8 0 8.5 4.4 18.1 9.8 21.7 3.6 2.3 17 6.9 33.7 11.6 4.4 1.3 8.2 2.7 8.3 3.1 0.2 0.4 1.2 0.8 2.3 0.8 1 0 1.9 0.7 1.9 1.5 0 1.3 -4.7 1.5 -36 1.5 l-36 0 0 -98z m222.1 4.7 c-0.6 -0.6 -1.1 -3.3 -1.1 -5.9 0 -4.4 0.3 -5 3.5 -7 4.1 -2.7 4.2 -3.1 1.3 -4.6 -6.6 -3.4 -11.8 -3.7 -11.8 -0.8 0 2.3 -14.8 5 -23.6 4.2 -21.4 -1.7 -24 -1.8 -26.7 -0.7 -3.8 1.5 -3.1 3.1 3.1 6.4 3.3 1.8 5.2 3.5 5.2 4.6 0 4.1 2.3 4.6 25.4 5.1 23.6 0.5 26.4 0.4 24.7 -1.3z m-88.2 -4.7 c1.6 -1 4.8 -4.5 7.1 -7.6 2.4 -3.1 7 -7.4 10.2 -9.5 5.6 -3.9 8.4 -7 7.1 -8.3 -1 -1 -8.1 -0.7 -8.8 0.4 -0.8 1.3 -8.1 1.3 -10.6 -0.1 -3.2 -1.6 -11.5 2.9 -17 9.3 -6.8 7.9 -11.7 15.1 -11.2 16.6 0.3 0.8 3.4 1.2 10.5 1.2 8.3 0 10.5 -0.3 12.7 -2z m114.1 -24.6 c0 -1.7 -7.7 -7.4 -10 -7.4 -1 0 -3.8 -0.9 -6.2 -2 -3.6 -1.6 -22.7 -4 -32 -4 -0.5 0 -0.8 0.6 -0.8 1.4 0 0.9 -2.1 1.5 -6.7 2 -3.8 0.3 -8.1 1 -9.6 1.4 -2.6 0.7 -2 1 4.8 2.7 l7.8 1.9 3.6 -2.1 c9.2 -5.3 33.2 -1.2 43.5 7.4 2.2 1.8 3.1 2.1 4.2 1.2 0.8 -0.6 1.4 -1.8 1.4 -2.5z m-83 -0.9 c0.8 -0.9 0.8 -1.5 0.2 -1.5 -1.8 0 -4.2 1.2 -4.2 2.1 0 1.4 2.6 1 4 -0.6z m0.1 -11.6 c5.1 -3.4 7.6 -6.9 6.1 -8.3 -0.2 -0.3 -3.1 1.9 -6.3 4.8 -3.2 3 -6.8 5.7 -7.9 6.1 -1.1 0.3 -2 1.1 -2 1.6 0 1.6 4 0 10.1 -4.2z m-28.3 -4.8 l10.8 -0.6 7.1 -5.3 c7.6 -5.6 13.7 -11.8 15.5 -15.8 0.6 -1.3 1.9 -2.4 2.8 -2.4 1.1 0 3 -2.7 5.5 -7.7 2.1 -4.2 4.6 -8.4 5.7 -9.5 2.6 -2.6 1.7 -2.3 -7 2.3 -14 7.5 -16.2 9 -16.2 10.7 0 2.2 -19.3 14.7 -28 18.1 -4.7 1.9 -7.9 4.1 -11.7 8 -2.9 2.9 -5.3 6.2 -5.3 7.2 0 1.6 0.6 1.4 5.1 -1.3 4.6 -2.9 6 -3.2 15.7 -3.7z m-92.6 -8.7 c-1.9 -3.7 -1.9 -3.7 -3.2 -1.5 -1.4 2.7 -0.8 5.4 2.2 10.1 l2.3 3.5 0.3 -4.2 c0.2 -2.7 -0.4 -5.5 -1.6 -7.9z"/>
 </g>
 <g fill="#ef4c56">
  <path d="M57.3 192.4 c-19.9 -5.7 -30.7 -9.5 -34.5 -11.9 -2.6 -1.7 -4.6 -4.4 -6.9 -9.1 -2.8 -6.1 -3.2 -7.6 -3.1 -15.8 0 -8.8 2.6 -19.2 4.1 -16.8 0.3 0.6 1.9 -1.1 3.4 -3.7 1.6 -2.6 4.8 -5.9 7.1 -7.4 4.6 -2.9 11.9 -5.7 14.5 -5.6 0.9 0 -0.5 0.7 -3 1.5 -3.2 0.9 -6.1 2.9 -9.6 6.7 -13.5 14.3 -15.8 32.8 -5.4 44 3.7 4.1 5.6 4.9 25.1 10.7 19.3 5.7 28 7.2 28 4.8 0 -0.8 1.5 -1.8 3.8 -2.4 2 -0.5 3.7 -1.3 3.7 -1.9 0 -0.5 1 -2.3 2.1 -4 1.2 -1.6 2.2 -3.3 2.3 -3.7 0.1 -0.5 0.1 -0.9 0.2 -1 0.6 -2.3 0.6 -5.7 -0.1 -5.3 -0.4 0.3 -0.6 -0.4 -0.3 -1.5 0.6 -2.1 2.3 -1.8 2.3 0.5 0 0.8 0.5 1.7 1.2 2.1 0.8 0.5 0.9 0.2 0.3 -1.2 -0.4 -1 -1.1 -5.2 -1.4 -9.2 l-0.6 -7.4 -2.7 2.1 c-3.4 2.7 -3.8 2.7 -3.8 -0.6 0 -5.9 1 -7.3 4.9 -7.3 3.5 0.1 3.7 0.2 7.5 8.3 5.3 11.2 4.9 15.4 -2.8 27.1 -1.8 2.8 -3.5 5.8 -3.8 6.7 -0.8 2.2 -10.6 5.1 -16.4 4.8 -2.7 -0.2 -10 -1.7 -16.1 -3.5z"/>
  <path d="M258 193 c0 -1.6 0.5 -3 1 -3 0.6 0 1 1.4 1 3 0 1.7 -0.4 3 -1 3 -0.5 0 -1 -1.3 -1 -3z"/>
  <path d="M85.1 171.3 c-0.1 -1.2 -0.9 -2.7 -1.8 -3.2 -1.5 -0.9 -1.4 -1 1 -1.1 2.8 0 3.2 1 1.7 4.5 -0.8 1.9 -0.9 1.9 -0.9 -0.2z"/>
  <path d="M74.8 163.9 c-5.3 -2.7 -8.1 -5.6 -4 -4.2 2.7 0.9 10.2 5.7 10.2 6.6 0 0.9 0.4 1.1 -6.2 -2.4z"/>
  <path d="M140 90.5 c0 -3.3 0.2 -3.5 3.5 -3.5 2.2 0 3.5 0.5 3.5 1.3 0 2.2 -3.1 5.7 -5.1 5.7 -1.5 0 -1.9 -0.7 -1.9 -3.5z"/>
  <path d="M228 85.5 l0 -3.5 4 2.1 c4.6 2.4 5 3.4 1.8 4.3 -4.9 1.3 -5.8 0.8 -5.8 -2.9z"/>
  <path d="M119.9 78.1 c5.1 -6.5 15.8 -10.7 21.5 -8.5 0.9 0.3 1.6 1.2 1.6 1.9 0 0.8 -2.4 1.5 -7 1.9 -5.1 0.5 -7 1.1 -7 2.2 0 0.8 -1 1.4 -2.5 1.4 -2 0 -2.5 0.5 -2.5 2.5 0 2.2 -0.4 2.5 -3.6 2.5 l-3.6 0 3.1 -3.9z"/>
  <path d="M150 72 c0 -3 0.1 -3 5.5 -3 5.4 0 5.5 0 5.5 3 0 3 -0.1 3 -5.5 3 -5.4 0 -5.5 0 -5.5 -3z"/>
  <path d="M82.3 65.6 c0.3 -0.8 0.9 -4.6 1.3 -8.5 0.3 -3.9 1.1 -7.1 1.5 -7.1 0.5 0 0.9 -0.4 0.9 -1 0 -0.5 -1 -1 -2.1 -1 -1.9 0 -2.1 -0.4 -1.5 -3.2 0.8 -3.9 3.1 -6.4 6.9 -7.3 1.9 -0.5 2.7 -0.3 2.7 0.6 0 0.8 0.3 2.4 0.6 3.7 0.5 1.6 0.3 2.2 -0.7 2 -1.6 -0.4 -3.2 9.1 -1.8 10.6 0.5 0.6 0.9 2 0.9 3.3 0 1.6 -0.6 2.3 -2 2.3 -1.6 0 -2 0.7 -2 3.5 0 3.1 -0.3 3.5 -2.6 3.5 -1.8 0 -2.5 -0.4 -2.1 -1.4z"/>
  <path d="M165.8 60.6 c2.8 -2 5.2 -4.4 5.2 -5.3 0 -0.9 0.3 -1.4 0.6 -1 1 1 -1.9 6.5 -4.1 7.6 -5.7 2.8 -6.6 2 -1.7 -1.3z"/>
  <path d="M164 57.1 c0 -0.5 1.5 -2 3.3 -3.2 l3.2 -2.2 -2.9 3.1 c-3.2 3.4 -3.6 3.7 -3.6 2.3z"/>
  <path d="M106.2 38.5 c0.3 -1.5 0.1 -3.9 -0.5 -5.4 -0.5 -1.5 -0.7 -4 -0.3 -5.4 0.5 -2.2 1.2 -2.7 3.6 -2.7 2.5 0 3 -0.4 3 -2.5 0 -2.3 0.3 -2.5 4.8 -2.5 8.2 0 10 4.5 4.6 11.3 -2.9 3.6 -4 3.4 -4.8 -0.8 -0.6 -2.8 -1.1 -3.5 -2.9 -3.4 -1.6 0 -1.8 0.2 -0.7 0.7 0.8 0.4 1.7 1.4 1.8 2.2 0.2 0.8 0.1 1.2 -0.3 0.8 -0.4 -0.4 -1.3 -0.1 -2 0.5 -1.5 1.5 -4.6 7.4 -4.4 8.4 0 0.4 -0.5 0.9 -1.2 1.2 -0.8 0.2 -1 -0.5 -0.7 -2.4z"/>
 </g>
 <g fill="#fe4e47">
  <path d="M90 175.2 c0 -1 -0.4 -2.2 -0.9 -2.7 -0.5 -0.6 -0.5 -1.9 -0.1 -3 0.7 -1.9 0.9 -1.8 1.9 0.8 0.6 1.5 1.5 2.7 2.1 2.7 0.8 0 0.8 0.6 0 2 -1.3 2.5 -3 2.6 -3 0.2z"/>
  <path d="M98.4 168.2 c-0.3 -2.8 -1.3 -5.9 -2 -6.9 -0.8 -1 -2.4 -3.3 -3.7 -5.2 -2.3 -3.6 -5.2 -5.5 -4.1 -2.7 0.3 0.9 0.1 1.6 -0.5 1.6 -0.6 0 -1 0.6 -0.9 1.3 0.2 0.6 -0.6 1.2 -1.7 1.2 -1.3 0 -2.1 -0.8 -2.3 -2.2 -0.2 -1.3 -1.4 -2.5 -3.3 -3.2 -2.4 -0.8 -2.9 -1.5 -2.9 -4.3 0 -2.5 0.6 -3.6 2.3 -4.3 1.3 -0.6 2.3 -2.1 2.5 -3.7 0.4 -3.2 7.1 -8.4 12.2 -9.4 2.6 -0.6 2.9 -1 2.4 -2.8 -0.4 -1.1 -2.2 -3.8 -4 -5.9 -3.2 -3.5 -3.4 -4.2 -3.4 -10.8 0 -6.4 -0.2 -7 -1.7 -6.4 -1 0.4 -4 1.4 -6.8 2.3 -9.7 3.2 -16.5 13.8 -16.6 26.2 -0.1 5.8 -0.1 5.8 -3.1 5.7 -2.3 -0.2 -3.3 -0.9 -4.3 -3.4 -1.2 -2.8 -1.2 -3.1 0.1 -2.6 1.2 0.4 1.4 0 0.8 -2.1 -0.4 -1.7 -0.1 -3.3 0.8 -4.4 2.7 -3.2 5.2 -13.4 4.9 -20.2 -0.1 -3.6 0.3 -7.9 0.9 -9.5 0.7 -1.7 1.1 -7.6 1.1 -13.1 -0.1 -7.8 0.2 -10.5 1.3 -11.7 0.8 -0.8 2 -3.6 2.7 -6.1 0.6 -2.6 1.4 -4.4 1.7 -4.1 0.8 0.8 0.2 13.9 -0.7 14.5 -0.4 0.3 -1.1 1.4 -1.4 2.4 -1.1 2.9 7.1 -4.1 11.4 -9.8 2.5 -3.2 3.5 -5.6 3.3 -7.4 -0.1 -1.5 0.2 -3.2 0.7 -3.8 0.5 -0.7 0.7 -3 0.3 -5.4 -0.5 -3 -0.9 -3.8 -1.6 -2.8 -0.6 0.8 -0.8 -0.2 -0.5 -3 0.7 -5.4 3.1 -8.3 6.5 -7.7 2.6 0.4 4.2 2 4.2 4.4 0 1 -0.3 1.1 -1.3 0.2 -1 -0.8 -1.4 -0.7 -1.4 0.2 -0.1 0.6 -0.3 3.3 -0.6 5.9 -0.7 6.3 0.8 7.6 6 5.2 2 -1 5.4 -3.5 7.5 -5.6 2.1 -2.1 4 -3.8 4.3 -3.8 0.3 0 0.5 1.4 0.5 3 0 3.1 2.5 9 3.7 9 0.4 0 3.2 -2.6 6.2 -5.8 4.2 -4.4 7.1 -6.3 11.6 -8 6.2 -2.3 30.8 -17.8 26.8 -16.9 -1.3 0.3 -2.3 0.4 -2.3 0.3 0 -0.9 10.2 -7.2 19.4 -12 6 -3.1 11.5 -6.1 12.2 -6.7 0.8 -0.7 2.8 -0.9 4.9 -0.5 3.1 0.6 3.5 1 2.9 2.8 -0.3 1.2 -2.2 3.6 -4 5.4 -1.9 1.7 -5.3 6.7 -7.5 11 -4.3 8.3 -7.7 13.4 -6.6 10.2 1.1 -3.1 -0.8 -1.9 -2.8 1.8 -2.2 4.2 -9.8 11.3 -17.9 16.9 -5.8 4 -5.9 4 -15.6 4 l-9.7 0.1 -8.5 5.2 c-4.7 2.9 -9.1 5.2 -9.7 5.2 -0.6 0 -1.1 1.2 -1.1 2.8 0 7.6 -1.6 9.8 -12 16.7 -5.4 3.6 -10.5 6.5 -11.2 6.5 -1.6 0 -3.8 1.9 -3.8 3.3 0 0.9 4.2 -0.1 5 -1.2 1 -1.3 10.5 -3.9 11.4 -3.1 0.4 0.5 -0.5 2.6 -2.2 4.7 -2.9 3.7 -4.8 9.3 -3.1 9.3 0.5 0 0.9 1 0.9 2.3 0 1.2 1.2 3.9 2.6 6 4.6 6.9 4.5 14.6 -0.3 16.6 -3.7 1.5 -10 7.4 -8.4 7.9 0.6 0.2 1.9 -0.2 2.9 -0.9 0.9 -0.7 1.4 -0.9 0.9 -0.4 -0.4 0.4 0 1.7 0.9 2.6 1.6 1.7 1.6 1.9 0 2.5 -2.3 0.9 -2.1 1.8 2.6 11.3 2.6 5.5 4.1 9.8 4 12 -0.2 5.2 -1 4.9 -1.8 -0.7z m-17.6 -75.2 c5.9 -3.3 11.2 -6 11.7 -6 0.5 0 3.8 -1.9 7.3 -4.2 l6.3 -4.3 -0.5 -7.5 c-0.3 -4.1 -0.8 -8.9 -1.2 -10.6 l-0.6 -3.2 -3.5 2.4 c-1.9 1.3 -4.3 2.6 -5.3 2.9 -1.6 0.5 -15.5 16.7 -19.3 22.5 -2.1 3.3 -6.8 14 -6.1 14 0.3 0 5.3 -2.7 11.2 -6z m41.2 -33.9 c0 -1.7 9.4 -4.1 16.1 -4.1 l6.7 0 9.7 -7.6 c5.3 -4.1 11.1 -9.2 12.9 -11.1 3.2 -3.7 9.8 -14.5 9.1 -15.1 -0.5 -0.5 -8.8 3.9 -11 5.9 -2 1.8 -13.9 10.4 -22.7 16.5 -2.6 1.7 -7.2 4 -10.3 4.9 -4.1 1.3 -6.5 2.9 -9.1 5.8 -3.5 4.2 -4.2 5.7 -2.4 5.7 0.6 0 1 -0.4 1 -0.9z"/>
  <path d="M92.1 169.7 c-0.6 -1.6 -1.1 -5.2 -1.1 -8 0.1 -4.9 0.1 -5.1 1.4 -2.7 1.8 3.2 2.5 8.9 1.6 11.5 -0.7 1.8 -0.9 1.8 -1.9 -0.8z"/>
  <path d="M76.5 165 c-4.9 -2.7 -9.1 -5.3 -9.3 -6 -0.5 -1.3 19.1 8.7 19.6 10.1 0.6 1.5 -0.8 0.9 -10.3 -4.1z"/>
  <path d="M120.5 115.9 c-0.4 -0.5 0.6 -1.4 2.2 -2 4 -1.6 17.3 -4.9 19.5 -4.9 2.6 0 2.2 1.8 -0.4 2.3 -1.3 0.2 0 0.5 2.7 0.6 6.1 0.2 4.3 1.5 -3.4 2.5 -4.4 0.6 -5.3 0.5 -4.8 -0.7 0.4 -1.2 -0.1 -1.3 -3.1 -0.6 -2 0.4 -5.6 1.5 -7.9 2.3 -2.6 0.9 -4.5 1.1 -4.8 0.5z"/>
  <path d="M30.8 108.6 c-2.1 -1.5 -2.4 -5.6 -0.5 -5.6 1.4 0 4.8 5.5 3.9 6.4 -0.8 0.9 -1.5 0.7 -3.4 -0.8z"/>
  <path d="M39.8 105.2 c-3.3 -5.6 -8.9 -20.5 -9.2 -24.5 l-0.4 -4.2 2.8 6 c3 6.4 3.9 9.7 1.5 5.5 -3.2 -5.6 -1.2 0.5 3.1 9.5 4.4 9.2 5.6 13.6 2.2 7.7z"/>
  <path d="M194.5 107.1 c-23.2 -0.6 -27.2 -1.4 -25.9 -5.3 0.4 -1.3 -0.8 -2.4 -4.6 -4.3 -3.7 -1.9 -5.5 -3.5 -6.6 -6 -2 -4.8 -1.9 -5 2.5 -6.3 4.9 -1.5 16.3 -1.5 26.9 0 6.5 0.9 9.5 0.8 14 -0.2 6.7 -1.5 7.8 -2 6.2 -3 -1.9 -1.2 8.6 -3.3 13.1 -2.7 4.5 0.6 11.5 4 11.2 5.5 -0.1 0.5 0.6 0.8 1.6 0.5 1.1 -0.3 2.1 0.2 2.4 1.1 0.4 0.9 0.2 1.6 -0.3 1.6 -1.7 0 -11 7.1 -11 8.4 0 0.7 0.9 3.2 2.1 5.5 1.1 2.4 1.8 4.5 1.5 4.8 -0.8 0.9 -9.8 1 -33.1 0.4z m2.5 -8.9 c0 -3.3 3 -5.2 8.2 -5.2 2.9 0 3 0.1 2.6 4 l-0.4 4 3.8 0 3.8 0 0 -4.8 c0 -4.7 0.1 -4.9 4.2 -6.8 4 -2 4.1 -2.2 2.2 -3.2 -1.6 -0.8 -3.8 -0.6 -10 1.1 -7.1 2 -9.8 2.2 -27.6 1.9 -11.3 -0.2 -19.9 0.1 -20.2 0.6 -0.9 1.4 1.3 2.8 6.9 4.4 4.3 1.2 5 1.7 5.3 4.1 l0.3 2.7 10.5 0 10.4 0 0 -2.8z"/>
  <path d="M101 102.6 c0 -0.7 1.7 -3.3 3.8 -5.7 2.1 -2.4 5.5 -6.8 7.6 -9.6 2 -2.9 4.9 -6.2 6.3 -7.3 1.4 -1.1 2.2 -2 1.8 -2 -0.5 0 0 -0.9 1 -2 1 -1.1 2.4 -2 3.2 -2 0.7 0 1.3 -0.4 1.3 -0.9 0 -1 3 -2.3 4.1 -1.8 0.3 0.1 1.3 -0.4 2.1 -1 1.4 -1.2 6.8 -1.1 11.4 0.3 1.2 0.3 2.5 0.1 2.8 -0.5 0.9 -1.4 13.6 -1.4 15.6 0 1.1 0.8 1.2 1.2 0.3 1.6 -2.1 0.8 -1.5 2.6 0.7 2 3.2 -0.8 -3.5 6.8 -9.2 10.4 -2.6 1.7 -7 5.9 -9.8 9.4 -7.5 9.4 -7.7 9.5 -23.5 9.5 -7.9 0 -13.4 -0.4 -13.1 -0.9 0.4 -0.5 -0.3 -0.7 -1.4 -0.4 -1.1 0.3 -2.3 0.9 -2.6 1.4 -0.8 1.4 -2.4 1.1 -2.4 -0.5z m35.5 -9.8 c4.9 -6.3 12.1 -13.7 15.8 -16.4 l2.7 -1.9 -7.1 0.3 c-4.2 0.2 -7.6 -0.1 -8.2 -0.7 -1.5 -1.5 -3.5 -1.4 -8.2 0.6 -3.8 1.6 -13.8 12.4 -18.8 20.4 l-1.9 2.9 10.9 0 10.8 -0.1 4 -5.1z"/>
  <path d="M49.5 77.6 c-1.9 -4.1 -3.5 -8.5 -3.5 -9.7 0 -1.2 -0.3 -1.9 -0.7 -1.5 -0.4 0.4 -1.4 -0.6 -2.3 -2.2 -0.8 -1.6 -2.6 -4.9 -3.9 -7.3 -4.8 -8.7 -0.8 -20.3 5.5 -16.1 2.4 1.6 4.3 7.1 4.7 14.2 0.3 5 1.3 9.7 3.1 14.1 2.6 6.7 3.4 14.3 1.6 15.4 -0.6 0.4 -2.5 -2.6 -4.5 -6.9z"/>
  <path d="M32.2 75.2 c-1.8 -5.3 -1.8 -6 -0.4 -5.8 0.9 0.2 1.8 0.9 2 1.7 0.3 1.1 0.1 1.1 -0.7 -0.1 -1.5 -2.1 -1.3 0.1 0.4 5 0.8 2.4 1.3 4.5 1.1 4.7 -0.2 0.2 -1.3 -2.3 -2.4 -5.5z"/>
  <path d="M243.6 80 c-1.6 -0.5 -3.8 -1.8 -5 -2.8 -3.2 -3 -9.4 -5.8 -16.8 -7.6 -6.4 -1.6 -6.9 -1.6 -12.2 0.2 -4.5 1.5 -5.6 1.6 -5.6 0.5 0 -1.1 -0.5 -1 -2.4 0.2 -3.6 2.4 -10.1 2.1 -20.9 -0.9 -5.4 -1.5 -10.6 -2.4 -11.6 -2.1 -1.1 0.3 -2.2 0.2 -2.5 -0.3 -0.6 -1 2.5 -2.8 6.4 -3.6 1.4 -0.3 5.4 -1.2 9 -2 3.6 -0.9 8.3 -1.6 10.5 -1.6 2.9 0 3.6 -0.3 2.5 -1 -3.2 -2 0.8 -2.3 17.5 -1.2 13 0.8 18.6 1.6 22.2 3.1 2.6 1 5.9 2.2 7.3 2.5 1.4 0.3 4.1 1.8 6 3.4 2.7 2.3 3.4 3.6 3.4 6.5 0 2.1 -0.8 4.5 -1.9 5.7 -2 2.2 -1.8 2.2 -5.9 1z m-43.6 -14 l4.5 -1.9 -6 0 c-3.3 -0.1 -7.1 0.2 -8.4 0.6 l-2.3 0.6 2.3 1.3 c3.1 1.7 4.5 1.7 9.9 -0.6z"/>
  <path d="M164 62.2 c0 -1.1 5.1 -3.5 5.8 -2.7 0.7 0.7 -2.9 3.4 -4.5 3.5 -0.7 0 -1.3 -0.4 -1.3 -0.8z"/>
  <path d="M161 60.4 c0 -1.3 5.8 -6.9 6.5 -6.3 0.2 0.3 -1.1 2.1 -3 3.9 -1.9 1.9 -3.5 2.9 -3.5 2.4z"/>
  <path d="M106.1 34.4 c-1.2 -3.9 -1.1 -5.4 0.4 -11.2 0.9 -3.7 2 -8.4 2.5 -10.4 0.4 -2.1 1.3 -4.4 2 -5.3 0.7 -0.8 0.9 -1.5 0.4 -1.5 -0.4 0 0.5 -1.3 2.1 -3 2.3 -2.4 3.7 -3 7 -3 4.6 0 5.9 0.7 4.6 2.4 -1 1.3 -3.1 11.8 -3.1 15.4 0 1.4 0.8 3.4 1.8 4.5 1.1 1.3 1.3 2.1 0.6 2.4 -0.7 0.2 -1 1.2 -0.7 2.3 0.3 1.2 -0.3 2.2 -1.6 2.9 -1.2 0.7 -2.1 1.8 -2.1 2.6 0 0.8 -0.9 1.5 -1.9 1.5 -1.4 0 -1.8 -0.5 -1.4 -2 0.4 -1.6 0.2 -1.9 -1.2 -1.3 -1.4 0.5 -1.6 0.3 -1.1 -0.8 0.4 -0.8 0.1 -0.6 -0.7 0.3 -0.8 1 -1.7 1.5 -2 1.1 -0.4 -0.3 -0.7 0 -0.7 0.8 0 0.8 -0.8 2.6 -1.8 4.1 l-1.8 2.7 -1.3 -4.5z"/>
 </g>
 <g fill="#fe693d">
  <path d="M87.1 181 c0.7 -1.4 1.4 -2.8 1.5 -3.2 0.1 -0.5 0.3 -1.1 0.4 -1.5 0.3 -1 0.6 -3.1 0.9 -5.8 0.1 -1.6 0.4 -1.4 1.7 1.2 1.5 3 1.5 3.4 -0.5 6.1 -1.1 1.6 -2.8 3.5 -3.7 4.3 -1.6 1.3 -1.6 1.2 -0.3 -1.1z"/>
  <path d="M74.4 174.6 c-0.3 -0.8 -2.3 -1.7 -4.5 -2.1 -4.3 -0.7 -4.9 -1.9 -1.9 -3.5 2.8 -1.5 11.3 2.2 10.8 4.7 -0.4 2.3 -3.6 2.9 -4.4 0.9z"/>
  <path d="M92 169.4 c-1.2 -3.2 -1.3 -12.6 -0.1 -10.4 1.1 1.9 2.5 13 1.6 13 -0.3 0 -1 -1.2 -1.5 -2.6z"/>
  <path d="M73 162 c-1.9 -1.1 -3.1 -1.9 -2.7 -2 1.1 0 6.7 2.9 6.7 3.5 0 0.7 -0.1 0.7 -4 -1.5z"/>
  <path d="M56.2 159.5 c0.9 -2 1.4 -2.2 2.5 -1.3 1.8 1.5 1.2 3 -1.5 3.4 -2 0.3 -2 0.2 -1 -2.1z"/>
  <path d="M83 155.6 c0 -1.7 -0.7 -2.7 -2.2 -3.2 -4.3 -1.3 -7.8 -4.5 -7.8 -7 0 -1.8 0.5 -2.4 2.3 -2.4 3.1 0 4.4 -1.1 4.8 -4 0.3 -1.7 1.1 -2.6 2.7 -2.8 1.2 -0.2 2.2 -0.8 2.2 -1.3 0 -0.5 0.7 -0.9 1.5 -0.9 0.8 0 1.5 -0.4 1.5 -1 0 -0.5 0.9 -1 1.9 -1 1.1 0 2.1 -0.5 2.3 -1 0.2 -0.6 2 -1.3 4.1 -1.7 3.2 -0.5 3.7 -0.3 3.7 1.4 0 1.5 -0.9 2.2 -3 2.7 -1.7 0.3 -5.2 2 -7.7 3.8 -4.6 3.1 -4.6 3.2 -2.2 4.1 1.3 0.5 3.4 1.3 4.7 1.8 3.2 1.2 2 2.7 -1.8 2.1 -2.1 -0.3 -3 0 -3 0.9 0 1.2 -0.2 1.2 -0.9 0.1 -0.8 -1.3 -1.9 -1 -6.1 1.6 -0.2 0.1 1.5 2 3.9 4.2 4.3 3.9 4.7 6 1 6 -1.3 0 -1.9 -0.7 -1.9 -2.4z"/>
  <path d="M56.5 135.1 c-0.9 -2 -1.1 -3.1 -0.5 -2.4 0.9 0.8 1.7 0.7 3.1 -0.5 1 -0.9 1.9 -2.2 1.9 -2.9 0 -0.7 0.7 -1.3 1.5 -1.3 1.1 0 1.5 1.3 1.5 5.3 0 5.2 -0.1 5.4 -2.9 5.4 -2.3 0 -3.2 -0.7 -4.6 -3.6z"/>
  <path d="M61 125.5 c0 -3.6 4.5 -13 7.9 -16.4 2 -2 5.6 -4.2 8.1 -5 2.5 -0.8 7.7 -3.2 11.6 -5.3 6.6 -3.5 11.4 -4.8 11.4 -3.1 0 1.6 -6.3 7.1 -7.6 6.6 -0.7 -0.3 -2 0.2 -2.9 1 -0.8 0.8 -3.8 2.3 -6.7 3.2 -6.9 2.3 -13.3 7.1 -14.8 11.3 -0.6 1.7 -1.6 3.2 -2.1 3.2 -0.5 0 -0.9 1.4 -0.9 3 0 2.3 -0.4 3 -2 3 -1.1 0 -2 -0.7 -2 -1.5z"/>
  <path d="M95 122.5 c0 -3.2 -0.2 -3.5 -3 -3.5 -2.8 0 -3 -0.3 -3 -3.5 0 -2.4 0.5 -3.5 1.5 -3.5 0.8 0 1.5 0.7 1.5 1.5 0 0.8 1.5 3.2 3.3 5.2 4.7 5.3 5.3 7.3 2.2 7.3 -2.2 0 -2.5 -0.4 -2.5 -3.5z"/>
  <path d="M122.5 114.6 c1.7 -0.8 3.2 -1.2 3.4 -1 0.7 0.7 -0.3 1.2 -3.4 1.8 l-3 0.6 3 -1.4z"/>
  <path d="M128 113 c0 -0.5 2.6 -1.4 5.8 -2 3.1 -0.7 6 -1.4 6.5 -1.7 0.4 -0.2 0.7 0 0.7 0.5 0 0.5 -1.2 1.2 -2.7 1.5 -1.6 0.3 -4.5 1 -6.5 1.5 -2.1 0.5 -3.8 0.6 -3.8 0.2z"/>
  <path d="M136.2 113.4 c0.3 -0.3 3 -0.7 5.9 -1 3.8 -0.3 4.8 -0.1 3.4 0.5 -2.2 1 -10.2 1.5 -9.3 0.5z"/>
  <path d="M63.5 108.8 c-0.9 -2.2 1.8 -11.4 5.9 -20.3 4.1 -8.8 19.4 -27.8 23.9 -29.6 1.8 -0.7 5.1 -3.1 7.5 -5.2 4.1 -3.9 4.2 -3.9 4.2 -1.4 0 1.4 0.5 2.7 1.1 2.9 1.1 0.4 3.6 15.4 2.7 16.3 -0.3 0.3 -1.2 0.3 -2 0 -1.1 -0.4 -1.8 -2.6 -2.2 -6.8 l-0.7 -6.2 -4 0.3 c-2.8 0.3 -3.9 0.9 -3.9 2.1 0 0.9 -1.6 2.7 -3.5 4.1 -1.9 1.4 -3.5 2.9 -3.5 3.3 0 1.2 -2.7 3.7 -3.9 3.7 -0.6 0 -1.1 0.8 -1.1 1.8 0 1 -0.9 2.4 -2 3.2 -1.1 0.8 -2 2 -2 2.7 0 0.7 -0.3 1.3 -0.8 1.3 -0.4 0 -1.6 1.6 -2.6 3.5 -1.1 1.9 -2.3 3.5 -2.8 3.5 -0.4 0 -0.8 0.9 -0.8 1.9 0 1.1 -0.6 2.6 -1.3 3.3 -2 2 -2.7 6.8 -1.1 6.8 0.8 0 1.4 -0.6 1.4 -1.4 0 -0.7 2.6 -2.6 5.8 -4.2 3.1 -1.6 5.9 -3.2 6.2 -3.5 1.1 -1.3 5 -2.9 6.9 -2.9 1.2 0 2.1 -0.4 2.1 -1 0 -0.5 1.1 -1.2 2.5 -1.6 1.4 -0.3 2.5 -1 2.5 -1.5 0 -0.5 0.9 -0.9 2 -0.9 1.1 0 2 -0.7 2 -1.5 0 -0.8 0.7 -1.5 1.5 -1.5 0.8 0 1.5 -0.7 1.5 -1.5 0 -0.8 0.9 -1.5 2 -1.5 3.3 0 2.3 3.6 -1.9 6.9 -2.2 1.8 -8.2 5.3 -13.3 7.9 -14.4 7.3 -25.5 14.3 -26.6 16.6 -0.9 1.9 -1.1 1.9 -1.7 0.4z"/>
  <path d="M30 107.5 c-0.7 -0.8 -0.9 -2.3 -0.5 -3.2 0.6 -1.6 0.8 -1.5 2.5 0.7 1.1 1.4 2 2.8 2 3.3 0 1.3 -2.7 0.8 -4 -0.8z"/>
  <path d="M224 106.6 c-0.3 -0.3 -2.1 -0.8 -4 -1.1 -1.9 -0.4 -4.2 -0.8 -5 -1 -0.8 -0.2 -11.5 -0.4 -23.7 -0.4 -18.7 -0.1 -22.3 -0.3 -22.3 -1.5 0 -0.8 0.9 -1.8 2 -2.1 3 -1 1.6 -2.2 -4.1 -3.5 -4.1 -1 -5.6 -2 -8.1 -5.4 l-3 -4.1 2.9 -0.6 c1.5 -0.4 4.3 -0.7 6.1 -0.8 2.6 -0.1 3.2 0.3 3.2 1.9 0 1.6 -0.7 2 -3.5 2 -5.4 0 -4.2 1.4 2.5 2.9 3.3 0.8 6 1.7 6 2.2 0 0.5 0.9 0.9 2.1 0.9 1.2 0 2.3 0.8 2.6 2 0.7 2.8 7.3 2.9 7.3 0.2 0 -2 2.9 -3.2 13.5 -5.2 15.3 -2.9 23.7 -5.2 22.4 -6.1 -1.7 -1.1 -7.6 -0.2 -14.8 2.2 -5.7 2 -11.7 2.3 -22 1.3 -5.1 -0.6 -6.1 -1 -6.1 -2.6 0 -1.7 0.6 -1.8 9.5 -1.2 9.1 0.7 17.4 -0.6 23.5 -3.5 3.2 -1.5 9.7 -1.1 16.7 1.1 6.8 2.1 9.3 3.8 5.8 3.8 -3 0 -15.5 6.3 -15.5 7.8 0 0.8 1.6 3 3.6 4.7 2.1 1.9 3.5 3.9 3.2 5 -0.1 0.9 -0.5 1.4 -0.8 1.1z m-19.5 -9.3 c0.4 -1.1 0 -1.1 -1.8 -0.2 -3.1 1.6 -3.2 1.8 -0.8 1.6 1.1 -0.1 2.3 -0.7 2.6 -1.4z"/>
  <path d="M101.5 101.9 c2.6 -4.5 3.6 -4.9 13.2 -4.9 8.5 0 9.3 0.2 9.3 1.9 0 1.8 -0.9 2 -9.7 2.3 -5.4 0.2 -10.7 0.8 -11.7 1.2 -1.5 0.8 -1.8 0.6 -1.1 -0.5z"/>
  <path d="M126.8 101.3 c-2.9 -0.7 -2.1 -3.3 1 -3.3 4.5 0 7.2 -1.1 7.2 -3 0 -2.1 3.1 -5 5.3 -5 1.2 0 1.7 -0.9 1.7 -2.8 0 -2.8 3.5 -7.2 5.7 -7.2 0.6 0 1.3 -0.7 1.7 -1.5 0.3 -0.8 1.2 -1.5 2.1 -1.5 0.8 0 1.5 -0.4 1.5 -1 0 -0.5 -1.1 -1 -2.5 -1 -3 0 -3.4 -2.5 -0.4 -3.3 1.1 -0.3 3.4 -0.1 5.2 0.5 2.3 0.9 3.2 0.8 3.5 0 0.2 -0.7 1.3 -1.2 2.5 -1.2 1.8 0 1.9 0.2 0.7 1.1 -1.2 0.8 -1.2 1.2 -0.2 1.6 0.7 0.3 -1.1 2.1 -4.5 4.5 -7 4.9 -12 9.4 -14.3 13 -0.9 1.6 -3.3 4.6 -5.4 6.8 -3.6 3.9 -5.8 4.6 -10.8 3.3z"/>
  <path d="M112.1 88.5 c5 -6.9 5.9 -7.4 5.9 -3.1 0 2.5 -0.4 3.6 -1.5 3.6 -0.8 0 -1.5 0.9 -1.5 2 0 1.6 -0.7 2 -3.1 2 l-3 0 3.2 -4.5z"/>
  <path d="M65 82.3 c0 -5.8 0.4 -8.5 1.7 -10.3 1 -1.3 2.3 -4.5 3 -7 l1.2 -4.5 -0.3 7 c-0.2 3.9 -0.8 8.3 -1.5 9.9 -0.7 1.6 -1.5 4.9 -1.8 7.3 -1 7.3 -2.3 5.9 -2.3 -2.4z"/>
  <path d="M51 79.5 c-2.5 -5.7 -5 -13.2 -5 -14.8 0 -0.7 -1.3 -3.9 -2.9 -7.3 -2 -4.2 -2.9 -7.7 -3 -11.7 -0.2 -9 2.5 -7.2 4.9 3.3 0.6 3 2.3 9.1 3.6 13.5 1.3 4.4 2.8 9.9 3.4 12.2 0.6 2.3 1.5 4.5 2 4.8 1.3 0.8 1.3 4.5 0 4.5 -0.6 0 -1.9 -2 -3 -4.5z"/>
  <path d="M239.4 74.5 c-10.5 -7.3 -28 -11.8 -31.7 -8.1 -0.8 0.8 -4.4 2.5 -8 3.7 l-6.5 2.3 -4.9 -2.1 c-3 -1.4 -8 -2.5 -13.2 -2.9 -9.5 -0.7 -9.2 -1.7 1.3 -3.9 11.8 -2.4 16.2 -2.8 33.8 -2.6 l17.8 0.1 9.2 4.6 c11.7 5.7 12.2 6.1 10.7 10.2 -0.6 1.8 -1.4 3.2 -1.7 3.1 -0.4 0 -3.5 -2 -6.8 -4.4z m-40.4 -8.6 c0.9 -0.5 -0.7 -0.8 -4.5 -0.8 -5.7 0 -5.9 0 -3.5 1.4 2.4 1.4 4.9 1.2 8 -0.6z"/>
  <path d="M110.7 69.4 c-0.9 -1 5.9 -13.5 9.8 -18.2 2.5 -2.8 4.9 -4.4 9 -5.7 3.1 -0.9 7.7 -3.2 10.3 -4.9 7.9 -5.4 20.6 -14.6 23.3 -16.9 3.9 -3.3 29.6 -16.3 30.5 -15.5 0.4 0.4 -0.6 1.8 -2.2 3 -5.4 4.1 -9.5 9.3 -13.5 16.8 -3.7 6.9 -7.9 12.4 -12.2 15.9 -1.5 1.2 -1.7 1 -1.7 -1.8 0 -2.6 0.4 -3.1 2.5 -3.1 1.9 0 2.5 -0.5 2.5 -2.3 0 -1.3 1.4 -4.9 3.1 -8.1 1.7 -3.1 2.9 -5.9 2.7 -6.1 -0.2 -0.3 -2.1 0.7 -4.1 2 -2 1.4 -4.1 2.5 -4.6 2.5 -0.6 0 -1.1 0.5 -1.1 1 0 0.6 -0.7 1 -1.5 1 -0.8 0 -1.5 0.5 -1.5 1 0 0.6 -0.7 1 -1.5 1 -0.8 0 -1.5 0.5 -1.5 1 0 0.6 -0.7 1 -1.5 1 -0.8 0 -1.5 0.5 -1.5 1 0 0.6 -0.9 1 -2 1 -1.1 0 -2 0.7 -2 1.5 0 0.8 -0.9 1.5 -2 1.5 -1.1 0 -2 0.7 -2 1.5 0 0.8 -0.9 1.5 -2 1.5 -1.1 0 -2 0.7 -2 1.5 0 1.6 -3.8 3.8 -10.4 6.1 -7.2 2.5 -9.6 3.9 -9.6 5.2 0 0.7 -0.7 1.5 -1.5 1.8 -2.5 1 -1.7 3.4 1 3.4 1.5 0 2.5 -0.6 2.5 -1.4 0 -1.5 3 -2.6 7.3 -2.6 4.2 0 3.3 2.5 -1.5 3.9 -2.4 0.7 -7.8 3.5 -12 6.2 -8.3 5.3 -8.2 5.2 -9.1 4.3z"/>
  <path d="M83.6 63.2 c-0.8 -1.4 0.2 -3.9 2 -4.6 1.8 -0.7 1.8 1.4 0.1 3.9 -0.9 1.1 -1.6 1.4 -2.1 0.7z"/>
  <path d="M143 56 c0 -1.4 0.9 -2.1 3.4 -2.5 2.2 -0.5 3.6 -1.4 3.9 -2.6 0.3 -1.1 1.4 -1.9 2.5 -1.9 1.1 0 2.2 -0.9 2.5 -2 0.4 -1.5 1.4 -2 4.1 -2 2 0 3.6 0.3 3.6 0.8 -0.1 0.4 -3.5 3.3 -7.7 6.5 -7.9 6 -12.3 7.3 -12.3 3.7z"/>
  <path d="M105 48.3 c0 -0.5 0.5 -1.5 1 -2.3 0.8 -1.2 1 -1.1 1 0.8 0 1.2 -0.4 2.2 -1 2.2 -0.5 0 -1 -0.3 -1 -0.7z"/>
  <path d="M107.4 34.8 c0.3 -1.8 0.9 -5.3 1.2 -7.8 1.6 -11.7 3.6 -16.8 9.5 -23.5 6 -6.8 6.3 -3.4 1.1 11.5 -0.8 2.4 -0.9 2.9 -1.1 5.1 0 1.1 -0.5 1.8 -1 1.5 -0.5 -0.4 -0.7 0.3 -0.4 1.3 0.6 2.2 -1.4 6.4 -2.6 5.7 -0.5 -0.3 -2 1.7 -3.5 4.4 -3.2 5.8 -4.1 6.3 -3.2 1.8z"/>
 </g>
 <g fill="#78c077">
  <path d="M88.7 176.9 c0.8 -0.8 0.8 -2 0.3 -3.5 -1.1 -2.8 0.9 -3.4 2.9 -1 1.6 1.9 -0.2 5.6 -2.6 5.6 -1.3 0 -1.4 -0.3 -0.6 -1.1z"/>
  <path d="M134 96.4 c0 -2.7 1.1 -4.9 4.6 -9.4 2.6 -3.3 5.8 -6.7 7.1 -7.6 1.8 -1.1 2.2 -1.9 1.4 -2.7 -0.6 -0.6 -1.1 -1.9 -1.1 -2.9 0 -1.5 0.8 -1.8 4.8 -1.8 2.6 0 6.5 -0.3 8.7 -0.6 2.7 -0.4 3.6 -0.3 2.6 0.4 -0.7 0.5 -1.1 1.4 -0.8 1.9 0.4 0.6 -2.6 3.2 -6.5 5.8 -3.9 2.7 -8.3 6.5 -9.7 8.5 -4.9 6.7 -9.4 12 -10.3 12 -0.4 0 -0.8 -1.6 -0.8 -3.6z"/>
  <path d="M121 78.1 c3.8 -4.9 12.7 -9.4 16.7 -8.5 8.7 1.8 10.1 5.7 2.1 5.3 -5.6 -0.3 -9.9 1.3 -13.2 5 -1.2 1.4 -3.1 2.1 -5.3 2.1 l-3.5 0 3.2 -3.9z"/>
  <path d="M83.5 61.3 c0.4 -1 1 -4.9 1.2 -8.8 0.6 -7.5 3.7 -15.5 5.4 -13.8 0.6 0.6 0.4 3.6 -0.7 8.4 -0.9 4.1 -1.8 8.8 -2.1 10.4 -0.6 3.3 -2 5.5 -3.5 5.5 -0.6 0 -0.7 -0.8 -0.3 -1.7z"/>
  <path d="M107.5 36 c0.8 -8.5 2.3 -13.2 4.3 -12.8 2.7 0.5 2.6 3.6 -0.2 7.8 -1.3 2.1 -3 5.3 -3.5 7.1 -1 3.1 -1 2.8 -0.6 -2.1z"/>
  <path d="M117 32.9 c0 -1.9 5.2 -9.9 6.1 -9.4 0.9 0.6 -0.3 4.3 -2.7 8 -1.7 2.6 -3.4 3.3 -3.4 1.4z"/>
 </g>
 <g fill="#fd803d">
  <path d="M87 181.2 c0 -0.4 0.5 -1.3 1.2 -2 0.7 -0.7 0.8 -1.2 0.4 -1.2 -0.5 0 -0.3 -0.6 0.3 -1.4 0.6 -0.8 1.1 -1.8 1 -2.2 -0.1 -0.5 -0.1 -2 0 -3.4 l0.1 -2.5 1.5 2.9 c1.5 2.8 1.4 3.1 -1 6.8 -2.5 3.7 -3.5 4.6 -3.5 3z"/>
  <path d="M72 173 c0 -0.5 -1.1 -1 -2.5 -1 -2.9 0 -3.5 -2.5 -0.7 -3.2 2.1 -0.6 7.4 1.5 9.1 3.6 1.2 1.4 0.9 1.6 -2.3 1.6 -2 0 -3.6 -0.4 -3.6 -1z"/>
  <path d="M92 169.6 c-1.2 -3.3 -1.2 -3.6 -0.1 -3.6 1 0 2.5 5 1.7 5.8 -0.3 0.2 -1 -0.7 -1.6 -2.2z"/>
  <path d="M56 161.2 c0.1 -2 1.6 -2.9 2.7 -1.7 0.9 1 0.8 1.4 -0.8 1.8 -1 0.3 -1.9 0.2 -1.9 -0.1z"/>
  <path d="M75.2 149.7 c-2.4 -1.6 -3.2 -2.8 -3 -4.7 0.2 -2 0.9 -2.6 3.6 -2.8 2.6 -0.3 3.2 -0.7 3.2 -2.8 0 -1.9 1 -2.9 4.8 -4.7 2.6 -1.2 4.8 -2.5 5 -2.9 0.2 -0.4 1.9 -1.2 3.8 -1.8 3 -1 3.4 -1.6 3.4 -4.6 0 -1.9 0.4 -3.4 1 -3.4 1.4 0 3 3.5 3 6.7 0 2.5 -0.7 3.2 -4.7 5.1 -2.7 1.2 -6.5 3.1 -8.7 4.3 l-3.8 2.2 2.3 1.3 2.4 1.3 -3.7 1.5 c-2.1 0.9 -4.7 1.6 -6 1.6 -2 0 -1.9 0.3 1.2 3 2.9 2.4 3.2 2.9 1.5 2.9 -1.1 0 -3.5 -1 -5.3 -2.2z"/>
  <path d="M60.3 137.1 c-1.3 -1.1 -2.3 -2.2 -2.3 -2.6 0 -0.4 0.7 -0.2 1.5 0.5 1.3 1.1 1.5 0.8 1.5 -1.4 0 -1.9 0.5 -2.6 2 -2.6 1.7 0 2 0.7 2 4 0 4.5 -1.2 5 -4.7 2.1z"/>
  <path d="M61 127.8 c0 -3.3 1.9 -9.6 3.1 -10.4 1.8 -1.1 2.1 0.3 1.4 6.5 -0.6 5.1 -1 6.1 -2.6 6.1 -1.3 0 -1.9 -0.7 -1.9 -2.2z"/>
  <path d="M88.3 111 c0.5 -5.8 0.4 -6 -1.9 -6 -1.3 0 -2.4 0.5 -2.4 1 0 0.6 -1.3 1 -3 1 -1.6 0 -3 0.5 -3 1 0 0.6 -1.6 1 -3.5 1 -6.2 0 -4.2 -2 6 -5.8 2.8 -1 7.2 -3.3 9.9 -5 2.8 -1.8 6 -3.2 7.3 -3.2 2.2 0 2.2 0.1 -1.2 4.6 -4 5.3 -4.9 7.8 -4.3 13.4 0.3 3.7 0.2 4 -2.1 4 -2.3 0 -2.4 -0.2 -1.8 -6z"/>
  <path d="M65 115.1 c0 -0.6 1.1 -2.3 2.5 -3.8 l2.4 -2.8 0.1 3.8 c0 3.3 -0.3 3.7 -2.5 3.7 -1.4 0 -2.5 -0.4 -2.5 -0.9z"/>
  <path d="M121.5 115.1 c1.2 -1.2 15.3 -5.1 18 -5 1.1 0 -0.5 0.7 -3.5 1.5 -3 0.8 -7.7 2.1 -10.5 2.9 -2.7 0.9 -4.5 1.1 -4 0.6z"/>
  <path d="M138.5 113.1 c3.1 -0.9 10.2 -1.4 9.4 -0.7 -0.2 0.2 -3.1 0.6 -6.4 0.9 -3.9 0.4 -5 0.3 -3 -0.2z"/>
  <path d="M31.2 108.1 c-0.8 -0.4 -1.2 -1.9 -1 -3.2 0.3 -2.3 0.4 -2.3 2.1 0.9 1.7 3.2 1.4 3.9 -1.1 2.3z"/>
  <path d="M63 108.1 c0 -4.2 8.4 -25.1 10.1 -25.1 0.5 0 0.9 1.6 0.9 3.5 0 2.3 -0.5 3.5 -1.4 3.5 -0.9 0 -1.5 1.4 -1.8 4 -0.3 3.9 -0.3 4 2.9 4 4.1 0 4.2 1 0.4 3.3 -3.6 2.1 -4.1 2.1 -4.1 0.2 0 -0.8 -0.4 -1.5 -1 -1.5 -0.5 0 -1 1 -1 2.3 -0.1 1.2 -0.9 3.2 -1.9 4.5 -2 2.3 -3.1 2.8 -3.1 1.3z"/>
  <path d="M220.5 105.2 c-3.3 -1.4 -8.2 -1.7 -27.8 -1.7 -15.3 0 -23.6 -0.4 -23.4 -1 0.2 -0.5 1.7 -1.3 3.3 -1.6 l2.9 -0.5 -3.5 -1.6 c-1.9 -0.9 -5.3 -2.2 -7.5 -3 -2.6 -0.9 -4.6 -2.5 -5.8 -4.6 -1.1 -1.8 -1.8 -3.5 -1.5 -3.7 0.2 -0.2 4.7 -0.7 10 -1.1 10.9 -0.8 16.8 0 16.8 2.1 0 1.2 -2 1.5 -10.5 1.5 -8.7 0 -10.5 0.3 -10.5 1.5 0 1 1.1 1.5 3.5 1.5 1.9 0 5.6 0.9 8.3 1.9 4.7 1.9 5 1.9 12.7 0.1 4.4 -1 13.6 -3 20.5 -4.5 6.9 -1.5 13 -3.1 13.5 -3.7 0.7 -0.7 -0.2 -0.9 -3 -0.4 -11.4 1.9 -13.5 1.9 -13.5 0.3 0 -1.5 6.9 -3.6 13 -3.8 3 -0.1 16 3.1 16 4 0 1.1 -17.2 6.1 -29.9 8.6 -6.8 1.4 -12.5 2.5 -12.7 2.5 -0.2 0 -0.4 0.5 -0.4 1.1 0 0.7 4.5 0.8 14.6 0.3 l14.5 -0.7 3.5 3.3 c5.3 5.2 4.4 6.2 -3.1 3.2z"/>
  <path d="M101.9 101.2 c0.5 -1 1.7 -2.4 2.5 -3.2 1.4 -1 1.6 -1 1.6 0.5 0 1.7 -2.6 4.4 -4.3 4.5 -0.4 0 -0.3 -0.8 0.2 -1.8z"/>
  <path d="M128.8 101.3 c-1 -0.2 -1.8 -1.1 -1.8 -1.9 0 -1 1.4 -1.4 5.2 -1.4 5 0 5.1 0 3.3 2 -1.8 2 -3.2 2.2 -6.7 1.3z"/>
  <path d="M119.8 100.3 c-3.3 -0.8 -2 -3.3 1.7 -3.3 2.8 0 3.5 0.4 3.5 2 0 2 -1.4 2.3 -5.2 1.3z"/>
  <path d="M82 93.5 c0 -2.2 0.4 -2.5 3.5 -2.5 4.3 0 4.4 1 0.6 3.3 -3.8 2.2 -4.1 2.2 -4.1 -0.8z"/>
  <path d="M110.2 91.3 c2.9 -4.1 19.3 -21.5 17.4 -18.4 -0.5 0.7 -0.1 0.9 0.8 0.5 0.9 -0.3 1.3 -1.1 0.9 -1.7 -0.4 -0.6 0 -0.8 1 -0.4 1 0.3 1.7 0.2 1.7 -0.2 0 -0.5 0.8 -0.8 1.8 -0.6 6.9 1.4 8.3 1.4 7.6 0.2 -0.5 -0.9 -0.4 -0.9 0.7 0.1 0.7 0.6 2.6 1.2 4.1 1.2 2.1 0 2.8 0.5 2.8 2 0 1.7 -0.7 2 -4.2 2 -2.3 0 -4.9 -0.7 -5.8 -1.5 -1.6 -1.4 -2.2 -1.4 -6.1 0.2 -2.4 0.9 -5.2 2.7 -6.2 4 -1 1.3 -2.9 2.3 -4.3 2.3 -2 0 -2.4 0.5 -2.4 3.1 0 2.2 -0.5 3.2 -2 3.6 -1.1 0.3 -2 1.4 -2 2.4 0 1.1 -0.7 1.9 -1.5 1.9 -0.8 0 -1.5 0.9 -1.5 2 0 1.6 -0.7 2 -3.1 2 l-3 0 3.3 -4.7z"/>
  <path d="M90 89.6 c0 -2.6 1.7 -3.6 6.1 -3.6 2.2 0 2.9 -0.5 2.9 -2 0 -1.3 0.7 -2 2 -2 1.1 0 2 -0.7 2 -1.5 0 -0.8 0.5 -1.5 1 -1.5 0.6 0 1 -0.7 1 -1.5 0 -0.8 0.9 -1.5 2 -1.5 2.9 0 2.5 3.6 -0.7 6.6 -3.1 2.9 -9.4 6.7 -13.5 8.3 -2.6 1 -2.8 0.9 -2.8 -1.3z"/>
  <path d="M185 88.9 c0 -1.8 0.4 -2 3.8 -1.5 2 0.3 4 0.5 4.5 0.6 0.4 0 0.7 0.7 0.7 1.5 0 1.1 -1.2 1.5 -4.5 1.5 -3.9 0 -4.5 -0.3 -4.5 -2.1z"/>
  <path d="M52.3 82 c-0.6 -1.5 -0.7 -2.6 -0.1 -2.9 1.5 -0.5 2 0.5 1.6 3.1 l-0.5 2.3 -1 -2.5z"/>
  <path d="M65.7 82.3 c-0.3 -0.5 -0.1 -1.7 0.4 -2.8 0.7 -1.7 0.8 -1.7 0.8 0.8 0.1 2.7 -0.4 3.4 -1.2 2z"/>
  <path d="M74 81.2 c0 -0.5 0.8 -1.8 1.8 -2.9 0.9 -1.2 3 -3.8 4.7 -5.8 1.6 -2.1 4.4 -5.4 6.2 -7.4 l3.3 -3.6 0 3.3 c0 3.3 -1.8 6.2 -3.9 6.2 -0.6 0 -1.1 0.7 -1.1 1.6 0 0.8 -0.6 2.2 -1.4 3 -0.8 0.8 -2.2 1.4 -3 1.4 -1 0 -1.6 0.9 -1.6 2.5 0 2 -0.5 2.5 -2.5 2.5 -1.4 0 -2.5 -0.4 -2.5 -0.8z"/>
  <path d="M241 75 c-1.9 -1.7 -4 -3 -4.7 -3 -0.7 0 -1.3 -0.4 -1.3 -1 0 -0.5 -0.6 -1 -1.3 -1 -0.7 0 -3.1 -0.9 -5.3 -1.9 -2.1 -1 -6.7 -2.5 -10.1 -3.1 -6.1 -1.2 -6.2 -1.2 -13.5 2.4 -8.3 4.1 -11.7 4.4 -18 1.6 -2.7 -1.1 -7.2 -2 -11.5 -2.2 -8.5 -0.4 -7.3 -1.5 2.5 -2.4 5.5 -0.5 8.1 -0.3 12 1.1 4.9 1.8 5.2 1.8 9.4 0 2.4 -1.1 4.6 -2.4 5 -3 1.1 -1.5 20 -1.3 20.6 0.3 0.2 0.6 1.4 1.2 2.6 1.2 3.1 0 8.6 2 8.6 3.1 0 0.5 0.9 0.9 2 0.9 1.1 0 2 0.5 2 1 0 0.6 0.7 1 1.5 1 0.8 0 1.5 0.5 1.5 1.1 0 0.6 0.8 0.8 1.8 0.5 2.1 -0.7 4.9 0.8 3.3 1.8 -0.6 0.4 -1.1 1.6 -1.1 2.7 0 2.7 -1.9 2.3 -6 -1.1z"/>
  <path d="M48.7 72.3 c-1.8 -3 -8.5 -25.5 -8.5 -28.6 0 -5.5 2 -4.1 3.6 2.4 0.8 3 2.7 9.9 4.3 15.3 1.6 5.4 2.9 10.3 2.9 10.7 0 1.1 -1.7 1.2 -2.3 0.2z"/>
  <path d="M105 70.8 c0 -1.3 -0.3 -4.7 -0.6 -7.5 -0.6 -4.4 -0.4 -5.3 0.9 -5.3 1.6 0 2.3 2 3.3 9.8 0.6 4.8 0.5 5.2 -1.5 5.2 -1.5 0 -2.1 -0.6 -2.1 -2.2z"/>
  <path d="M111 68.6 c0 -1.8 4.3 -6.6 5.9 -6.6 0.6 0 1.1 -0.4 1.1 -1 0 -0.5 0.5 -1 1.1 -1 0.6 0 1.7 -0.7 2.5 -1.5 3.9 -3.9 27.4 -6.6 27.4 -3.1 0 1.8 -3.1 2.6 -10.5 2.6 -6.5 0 -11.6 1.9 -18.7 6.8 -7 4.7 -8.8 5.5 -8.8 3.8z"/>
  <path d="M91 61.2 c0 -0.5 2.2 -2.1 5 -3.6 3.5 -1.9 5.8 -4.1 7.7 -7.4 3 -5.1 4.1 -4.1 2.8 2.4 -0.5 3 -1 3.4 -3.5 3.4 -2.5 0 -3 0.4 -3 2.4 0 1.3 -0.7 2.7 -1.6 3 -2.3 0.9 -7.4 0.7 -7.4 -0.2z"/>
  <path d="M152.2 50.9 c0.3 -3 0.7 -3.4 3.5 -3.7 2.4 -0.2 3.3 -0.9 3.5 -2.5 0.2 -1.8 1.1 -2.3 4.2 -2.5 3.6 -0.3 3.8 -0.2 2.5 1.4 -0.7 0.9 -3 2.7 -4.9 4 -1.9 1.3 -4.8 3.3 -6.3 4.5 l-2.8 2.2 0.3 -3.4z"/>
  <path d="M142.5 39.4 c6.9 -6.1 36.4 -25.4 38.9 -25.4 0.3 0 0.6 0.7 0.6 1.5 0 0.8 0.5 1.5 1.1 1.5 0.6 0 0 1.5 -1.3 3.3 -1.4 1.7 -3.7 5.6 -5.2 8.5 -1.4 2.8 -3.1 5.2 -3.7 5.2 -1.2 0 -0.8 -6.2 0.5 -9.2 0.6 -1.3 0.3 -1.5 -1.3 -1.1 -1.2 0.3 -2.1 0.9 -2.1 1.4 0 0.5 -0.7 0.9 -1.5 0.9 -0.8 0 -1.5 0.5 -1.5 1 0 0.6 -0.7 1 -1.5 1 -0.8 0 -1.5 0.5 -1.5 1 0 0.6 -0.7 1 -1.5 1 -0.8 0 -1.5 0.5 -1.5 1 0 0.6 -0.7 1 -1.5 1 -0.8 0 -1.5 0.5 -1.5 1 0 0.6 -0.7 1 -1.5 1 -0.8 0 -1.5 0.5 -1.5 1 0 0.6 -0.9 1 -2 1 -1.1 0 -2 0.7 -2 1.5 0 0.8 -0.8 1.5 -1.9 1.5 -1 0 -2.1 0.9 -2.4 2 -0.4 1.6 -1.3 2 -4.4 2 l-3.8 -0.1 4 -3.5z"/>
  <path d="M110.5 19.3 c0.3 -2.1 1.5 -5.6 2.5 -7.8 2 -4.3 8.7 -12.2 9.5 -11.3 1 1 -3.9 15.8 -5.2 15.8 -0.7 0 -1.3 -1 -1.4 -2.2 -0.1 -3 -0.6 -1.4 -1.4 4.5 -0.5 3.9 -1 4.7 -2.7 4.7 -1.8 0 -1.9 -0.4 -1.3 -3.7z"/>
  <path d="M187 12.6 c0 -0.9 1.4 -2.2 3 -3.1 1.7 -0.9 3 -1.1 3 -0.6 0 0.5 -1.3 1.9 -3 3.1 -2.4 1.7 -3 1.9 -3 0.6z"/>
 </g>
 <g fill="#a79c83">
  <path d="M72 180 c0 -0.5 0.5 -1.2 1 -1.5 1.5 -0.9 1.2 -2.5 -0.5 -2.5 -0.8 0 -1.5 -0.6 -1.5 -1.4 0 -1.7 -4 -0.9 -5.5 1.1 -0.8 1 -2 0.9 -6.5 -0.5 l-5.5 -1.7 5.8 -0.3 c5.3 -0.3 7.4 -1.4 4.5 -2.5 -0.7 -0.2 0.8 -0.8 3.3 -1.2 3.4 -0.5 5.4 -0.3 7.7 0.9 3.7 1.9 4.3 2.7 3.6 5.2 -0.5 2 -6.4 6 -6.4 4.4z"/>
  <path d="M88 179.5 c0.7 -0.8 0.9 -1.5 0.5 -1.5 -0.4 0 -0.2 -0.6 0.4 -1.4 0.8 -1 0.9 -2.1 0.3 -3.3 -0.5 -1 -0.6 -2.7 -0.2 -3.7 0.6 -1.8 0.9 -1.6 2.3 1.4 1.7 3.2 1.6 3.4 -0.9 6.7 -1.4 1.8 -2.8 3.3 -3.1 3.3 -0.3 0 0 -0.7 0.7 -1.5z"/>
  <path d="M91.6 168.2 c-0.4 -1.8 -0.5 -3.6 -0.2 -3.9 1.1 -1.2 1.7 0.5 1.4 3.9 l-0.3 3.3 -0.9 -3.3z"/>
  <path d="M77.1 157.9 c-5.2 -3.2 -9.8 -6.4 -10.3 -7.1 -0.4 -0.7 -0.8 -3 -0.8 -5 0 -4.6 -0.8 -6.8 -2.6 -6.8 -0.8 0 -1.4 -0.9 -1.4 -2 0 -3.8 7 -1.6 7 2.2 0 0.7 1.9 2.1 4.1 3.2 2.9 1.3 3.7 2.1 3 3 -0.7 0.9 -0.2 1.7 2 3 1.7 1 4.6 3.2 6.5 4.8 2.8 2.4 3.2 3.3 2.3 4.5 -0.9 1 -0.9 2 -0.1 3.8 0.7 1.4 0.8 2.5 0.4 2.4 -0.4 0 -4.9 -2.7 -10.1 -6z m5.9 -1.3 c0 -2.7 -0.5 -3.6 -2.2 -4.2 -1.3 -0.4 -4.5 -2.2 -7.2 -4 -2.8 -1.8 -5.2 -3.1 -5.5 -2.9 -0.7 0.8 2.7 4.1 6.4 6.1 1.9 1 3.5 2.1 3.5 2.5 0 0.8 4 5.9 4.6 5.9 0.2 0 0.4 -1.5 0.4 -3.4z"/>
  <path d="M56.1 161.5 c-0.2 -2.4 1.4 -3.3 2.9 -1.7 1.3 1.4 1.2 1.5 -0.2 0.9 -0.9 -0.3 -1.9 -0.1 -2.2 0.6 -0.2 0.7 -0.5 0.8 -0.5 0.2z"/>
  <path d="M138 92.2 c0 -2.8 5.6 -11.2 7.4 -11.2 0.8 0 1.6 -0.7 2 -1.5 0.3 -0.8 1.2 -1.5 2.1 -1.5 0.8 0 1.5 -0.4 1.5 -1 0 -0.5 -1.8 -1 -4 -1 -2.8 0 -4 -0.4 -4 -1.4 0 -2 4.8 -3 6.8 -1.4 4.3 3.3 4.5 3.8 2.9 5.6 -0.9 0.9 -1.7 2.1 -1.9 2.7 -0.2 0.5 -0.9 1 -1.6 1.2 -2.2 0.3 -5.2 3.5 -5 5.2 0.2 0.9 -0.3 1.6 -1 1.6 -0.7 0 -2.2 1.1 -3.2 2.5 l-2 2.5 0 -2.3z"/>
  <path d="M226 87 c0 -1.8 0.4 -2.1 2.3 -1.6 1.2 0.3 3.3 0.6 4.7 0.6 3.4 0 1.3 1.7 -3.2 2.5 -3.5 0.7 -3.8 0.5 -3.8 -1.5z"/>
  <path d="M125.2 75.1 c0.7 -1.1 1.5 -1.8 1.9 -1.5 0.4 0.2 1.3 -0.1 2.1 -0.8 2.3 -2.2 4.8 -2.1 4.8 0.2 0 1.3 -0.7 2 -2 2 -1.1 0 -2 0.5 -2 1 0 0.6 -1.4 1 -3 1 -2.7 0 -2.9 -0.2 -1.8 -1.9z"/>
  <path d="M111 69 c0 -2.3 7.2 -14.9 10.5 -18.3 4.4 -4.5 7.5 -5.4 7.5 -2.1 0 1.4 -0.6 2.4 -1.4 2.4 -0.8 0 -1.6 0.7 -2 1.5 -0.3 0.8 -1.2 1.5 -1.9 1.5 -0.8 0 -1.7 1.4 -2.1 3.1 -0.4 1.9 -1.3 3.3 -2.6 3.6 -2.3 0.6 -2.7 2.3 -0.5 2.3 2.2 0 1.8 1.3 -0.7 2.9 -1.3 0.8 -3.3 2.1 -4.5 2.9 -1.7 1 -2.3 1.1 -2.3 0.2z"/>
  <path d="M87 65.1 c1.1 -2.2 3 -3.7 3 -2.4 -0.1 1.1 -2.6 4.3 -3.4 4.3 -0.4 0 -0.2 -0.9 0.4 -1.9z"/>
  <path d="M83.5 63 c-0.4 -0.6 -0.1 -1.7 0.5 -2.5 0.6 -0.8 0.9 -1.9 0.5 -2.5 -0.3 -0.5 -0.1 -1 0.4 -1 0.6 0 1.1 -2.1 1.1 -4.9 0 -4.9 1 -6.8 2.9 -5.6 0.6 0.3 0.4 2.4 -0.4 5.3 -0.8 2.6 -1.5 5.6 -1.5 6.7 -0.1 2.7 -2.6 6 -3.5 4.5z"/>
  <path d="M164 57.5 c1.9 -1.9 3.6 -3.5 3.9 -3.5 0.3 0 -1 1.6 -2.9 3.5 -1.9 1.9 -3.6 3.5 -3.9 3.5 -0.3 0 1 -1.6 2.9 -3.5z"/>
  <path d="M147 54.5 c0 -2.2 0.4 -2.5 3.8 -2.5 l3.7 0.1 -2.8 2.4 c-3.6 3.2 -4.7 3.1 -4.7 0z"/>
  <path d="M157 47.1 c0 -2.4 0.4 -3.1 2 -3.1 1.1 0 2 -0.7 2 -1.5 0 -1 1.1 -1.5 3.5 -1.5 3.3 0 3.5 -0.2 3.5 -3.5 0 -1.9 0.4 -3.5 0.9 -3.5 0.5 0 1.2 -1.1 1.5 -2.5 0.5 -1.8 1.3 -2.5 3.1 -2.5 2.2 0 2.3 0.2 1.4 3 -1.4 3.8 -7.5 10.7 -13.3 14.8 l-4.6 3.3 0 -3z"/>
  <path d="M110.9 27.8 c-1.5 -2.3 -1.5 -5.8 0.1 -5.8 0.4 0 1.1 -1.1 1.4 -2.5 0.5 -1.8 1.3 -2.5 3.1 -2.5 l2.5 0 -2.1 5.2 c-3.2 8.1 -3.4 8.3 -5 5.6z"/>
 </g>
 <g fill="#8fcb74">
  <path d="M124.3 99.3 c-5.3 -0.4 -5.3 -0.4 -5.3 -3.9 0 -3.4 0 -3.4 4.7 -3.4 4.5 0 5 -0.3 10.6 -6.2 5.6 -5.8 5.8 -6.2 3.7 -7 -2.1 -0.8 -7.2 1.1 -8.5 3.2 -0.8 1.3 -7.5 1.3 -9.5 0 -1.2 -0.8 -0.9 -1.5 2 -4 7.3 -6.4 13.1 -8.2 19.6 -6.1 1.6 0.5 5 1.2 7.7 1.6 6 0.8 6.3 3.1 0.7 7.7 -4.7 3.9 -13.5 14.7 -12.6 15.5 1.3 1.3 -1.8 3.3 -4.8 3.1 -1.7 -0.1 -5.5 -0.3 -8.3 -0.5z"/>
  <path d="M112 67.3 c0.1 -3.1 2.5 -5.3 5.9 -5.3 4.2 0 3.7 1.4 -1.7 4.6 -3.8 2.3 -4.2 2.3 -4.2 0.7z"/>
  <path d="M84.6 60.5 c0.4 -1.6 1 -5.4 1.3 -8.4 0.4 -3.3 1.1 -5.6 2 -5.9 1.4 -0.5 1.4 0 -0.7 9.3 -0.5 2.2 -1.4 4.9 -2.1 6 -1.1 1.8 -1.1 1.6 -0.5 -1z"/>
  <path d="M163 42.4 c0 -1.5 1.4 -4.2 3.5 -6.7 1.9 -2.2 3.5 -4.4 3.5 -4.9 0 -0.4 1.1 -0.8 2.5 -0.8 3 0 3.1 0.5 0.4 5 -2.5 4.2 -5.8 7.8 -8.1 9.1 -1.5 0.8 -1.8 0.5 -1.8 -1.7z"/>
  <path d="M110.6 27.4 c-1.1 -2.9 -0.5 -6.9 1.3 -9.1 2 -2.4 6.7 -3.2 5.8 -1 -5.2 12.4 -5.9 13.4 -7.1 10.1z"/>
 </g>
 <g fill="#ff9c3f">
  <path d="M89.3 174.5 c-0.1 -1.9 0.3 -3.5 0.8 -3.5 0.5 0 0.9 0.7 0.9 1.6 0 0.8 0.5 1.2 1 0.9 1.4 -0.9 1.2 0.7 -0.4 2.8 -1.9 2.4 -2.2 2.2 -2.3 -1.8z"/>
  <path d="M91 161.8 c0 -2.5 0.3 -2.9 1 -1.8 1.3 2 1.3 5 0 5 -0.5 0 -1 -1.5 -1 -3.2z"/>
  <path d="M73 154.7 c-6.4 -4.2 -6.5 -4.3 -6.8 -9.2 -0.2 -3.2 -1 -5.7 -2.2 -7 -6 -6.3 -1.3 -25 7.7 -31.1 1.8 -1.2 5.4 -2.9 8.1 -3.7 2.6 -0.9 7.5 -3.2 10.7 -5.2 5.3 -3.2 8.5 -4.3 8.5 -3 0 0.3 -1.6 2.5 -3.5 5.1 -1.9 2.5 -3.5 5.5 -3.5 6.7 0 1.2 -0.3 3.2 -0.6 4.3 -0.4 1.6 0.4 3.3 3 6.1 1.9 2.2 4 5.2 4.6 6.7 1.4 3.8 1.3 7.6 -0.4 7.6 -0.7 0 -3.4 1.1 -6 2.5 -2.6 1.4 -4.9 2.5 -5.2 2.5 -0.2 0 -0.4 -1.1 -0.4 -2.5 0 -1.4 0.5 -2.5 1.1 -2.5 0.6 0 1.7 -0.7 2.5 -1.5 0.9 -0.8 2.4 -1.5 3.5 -1.5 2.8 0 2.4 -1.3 -2.2 -6.6 -4.1 -4.7 -4.1 -4.8 -3.7 -11.6 0.2 -3.7 0 -6.8 -0.4 -6.8 -0.4 0 -0.8 0.4 -0.8 1 0 0.5 -1.2 1.3 -2.7 1.6 -4 1 -9.4 3.8 -12.3 6.5 -3.9 3.6 -7 11.9 -7 18.3 0 4.9 0.2 5.6 2 5.6 1.1 0 3.9 1.4 6.2 3.1 2.4 1.6 4.4 2.5 4.6 2 0.2 -0.6 1 -1.1 1.8 -1.1 0.8 0 1.4 -0.7 1.4 -1.5 0 -0.9 0.9 -1.5 2.2 -1.5 2.1 0 2.1 0.1 0.3 1.4 -1.7 1.2 -1.4 1.5 3.8 2.7 3.2 0.7 6 1.6 6.3 2.1 0.3 0.4 -3.5 0.8 -8.4 0.8 -4.9 0 -9.2 0.3 -9.5 0.7 -0.4 0.3 1.5 2.1 4.1 3.8 5.9 4 8.2 6.5 5.9 6.5 -0.8 0 -1.7 -0.6 -2 -1.2 -0.6 -1.6 -15.6 -11.2 -16.3 -10.5 -1.1 1 1.3 3.8 5.5 6.6 2.3 1.6 4.9 4 5.6 5.5 0.8 1.4 1.3 2.6 1.2 2.6 -0.1 0 -3.1 -1.9 -6.7 -4.3z"/>
  <path d="M125 113.5 c1.9 -0.7 4.2 -1.3 5 -1.3 0.8 0 -0.1 0.6 -2 1.3 -1.9 0.7 -4.2 1.3 -5 1.3 -0.8 0 0.1 -0.6 2 -1.3z"/>
  <path d="M31.2 108.1 c-0.8 -0.4 -1.2 -1.9 -1 -3.2 0.3 -2.3 0.4 -2.3 2 0.9 1.7 3.2 1.4 3.9 -1 2.3z"/>
  <path d="M63.6 106.3 c1.4 -6.1 5.5 -16.9 8.1 -21.4 5.2 -9.1 18.1 -23.6 23.8 -26.8 4.9 -2.8 9.5 -7.6 9.5 -9.9 0 -0.6 0.5 -1.4 1 -1.7 0.6 -0.4 1 1.2 1 3.9 0 4.2 -0.2 4.6 -2.5 4.6 -2 0 -2.5 0.5 -2.5 2.5 0 1.6 -0.6 2.5 -1.5 2.5 -0.8 0 -1.5 0.5 -1.5 1 0 0.6 -0.9 1 -2 1 -1.1 0 -2 0.5 -2 1 0 0.6 -0.9 1 -2 1 -1.3 0 -2 0.7 -2 2 0 1.5 -0.7 2 -2.5 2 -2.1 0 -2.5 0.5 -2.5 3 0 2.5 -0.4 3 -2.5 3 -2.1 0 -2.5 0.5 -2.5 3 0 2 -0.5 3 -1.5 3 -0.8 0 -1.5 0.9 -1.5 1.9 0 1.1 -0.3 2.1 -0.7 2.3 -1 0.4 -6.5 11.9 -6 12.4 0.4 0.4 10.9 -4.7 11.7 -5.7 1 -1.2 6.9 -3.9 8.5 -3.9 0.9 0 2.3 -0.7 3.1 -1.5 0.9 -0.8 2.4 -1.5 3.5 -1.5 1 0 1.9 -0.7 1.9 -1.5 0 -0.8 0.9 -1.5 2 -1.5 1.1 0 2 -0.7 2 -1.5 0 -0.9 0.9 -1.5 2.4 -1.5 1.8 0 2.3 0.4 1.9 1.8 -0.6 2.4 -6.7 6.5 -18.6 12.6 -11.9 6 -24.7 14.1 -24.7 15.6 0 0.5 -0.5 1 -1 1 -0.6 0 -0.8 -1.1 -0.4 -2.7z"/>
  <path d="M102 101.9 c0 -0.5 1.7 -2.8 3.8 -5.2 2.1 -2.3 6.2 -7.2 9.1 -10.9 2.9 -3.8 5.5 -6.8 5.7 -6.8 0.2 0 0.4 1.6 0.4 3.5 0 2.4 -0.5 3.5 -1.5 3.5 -0.8 0 -1.5 0.9 -1.5 2 0 1 -0.6 2.3 -1.3 2.7 -0.8 0.4 -1.6 1.6 -2 2.6 -0.4 1.1 -1.7 1.7 -3.7 1.7 -1.6 0 -3 0.5 -3 1 0 0.6 0.5 1 1 1 0.6 0 1 0.7 1 1.5 0 0.8 -0.6 1.5 -1.2 1.5 -0.7 0 -2.5 0.7 -4 1.4 -1.6 0.8 -2.8 1 -2.8 0.5z"/>
  <path d="M129 101.3 c-7.2 -0.6 -10 -1.4 -10 -2.8 0 -1.2 1.9 -1.5 9.6 -1.5 8.6 0 9.5 0.2 8.4 1.6 -2 2.3 -4.1 3 -8 2.7z"/>
  <path d="M177.2 101.2 c1.3 -0.5 0.1 -1.3 -4.5 -2.9 -3.4 -1.2 -7.4 -2.4 -8.8 -2.7 -2.2 -0.5 -6.9 -6.1 -6.9 -8.2 0 -0.2 1.5 -0.4 3.4 -0.4 2.8 0 3.5 0.4 3.8 2.1 0.2 1.7 1.9 2.7 7.8 4.6 l7.5 2.5 10.5 -2.2 c13 -2.7 13.3 -2.8 9.3 -2.9 -8.6 -0.2 1.4 -5.3 15 -7.7 3.3 -0.6 3.7 -0.4 3.7 1.5 0 1.5 -0.6 2.1 -2.2 2.2 -2.8 0 -13.9 3.7 -11.8 3.8 0.8 0 5.2 -0.8 9.8 -1.9 9.7 -2.3 13.5 -2.5 13 -0.7 -0.6 1.7 -5.3 3.1 -25 7.2 -9.5 2 -17.5 3.9 -17.7 4.1 -0.2 0.2 1.8 0.5 4.5 0.5 4.3 0.1 4.5 0.2 1.9 0.9 -3.8 1 -15.6 1.1 -13.3 0.2z"/>
  <path d="M184 89 c0 -2.1 1 -2.4 4.8 -1.4 3.6 1 2.7 3.4 -1.3 3.4 -2.8 0 -3.5 -0.4 -3.5 -2z"/>
  <path d="M51.3 79.4 c-1.1 -2.7 -3.3 -8.7 -4.8 -13.4 -1.5 -4.7 -3.6 -10.1 -4.6 -12.1 -1.8 -3.6 -2.4 -13.9 -0.8 -13.9 0.8 0 3.9 9.3 3.9 11.8 0 0.7 1.1 4.6 2.4 8.5 5.2 16.2 6.8 21.6 6.4 22.8 -0.2 0.7 -1.3 -1 -2.5 -3.7z"/>
  <path d="M66.3 78.5 c0 -2.7 0.2 -3.8 0.4 -2.2 0.2 1.5 0.2 3.7 0 5 -0.2 1.2 -0.4 0 -0.4 -2.8z"/>
  <path d="M238.6 72.9 c-6.2 -4.1 -19.5 -8.9 -24.7 -8.9 -1.7 0 -6.3 1.6 -10.2 3.5 -8.2 4 -9.9 4.2 -15.8 1.5 -2.4 -1.1 -5.8 -2 -7.6 -2 -1.7 0 -3.5 -0.5 -3.8 -1 -1.7 -2.8 16.1 -4.9 37.6 -4.4 l13.7 0.3 9.3 4.6 c5.2 2.5 9.8 5 10.2 5.5 0.9 0.8 -0.9 5.1 -2.1 4.9 -0.4 0 -3.4 -1.8 -6.6 -4z"/>
  <path d="M105 70.5 c0 -4 2.4 -4.9 3.4 -1.2 1 3.7 0.7 4.7 -1.4 4.7 -1.6 0 -2 -0.7 -2 -3.5z"/>
  <path d="M112 67 c0 -1.8 8.3 -15.4 10 -16.5 0.6 -0.4 1 0.9 1 2.9 0 2.9 -0.4 3.6 -2 3.6 -1.5 0 -2 0.7 -2 3 0 1.8 -1 3.9 -2.5 5.5 -2.7 2.6 -4.5 3.2 -4.5 1.5z"/>
  <path d="M104 62.5 c0 -4 2.4 -4.9 3.4 -1.2 1 3.7 0.7 4.7 -1.4 4.7 -1.6 0 -2 -0.7 -2 -3.5z"/>
  <path d="M125.2 48.8 c0.2 -0.6 3.5 -2.4 7.2 -3.9 3.7 -1.5 9.3 -4.7 12.4 -7.2 12.9 -10 43.5 -28.7 47 -28.7 0.7 0 -1.6 2.7 -5.1 6 -3.8 3.5 -7.7 8.4 -9.6 12 -3.8 7.2 -5.6 7.8 -4.9 1.6 0.5 -3.9 0.3 -4.3 -1.3 -3.9 -1.1 0.3 -1.9 0.9 -1.9 1.4 0 0.5 -0.7 0.9 -1.5 0.9 -0.8 0 -1.5 0.5 -1.5 1 0 0.6 -0.7 1 -1.5 1 -0.8 0 -1.5 0.5 -1.5 1 0 0.6 -0.7 1 -1.5 1 -0.8 0 -1.5 0.5 -1.5 1 0 0.6 -0.7 1 -1.5 1 -0.8 0 -1.5 0.5 -1.5 1 0 0.6 -0.6 1 -1.4 1 -0.8 0 -1.6 0.7 -2 1.5 -0.3 0.8 -1.2 1.5 -2 1.5 -0.7 0 -1.6 0.7 -2 1.5 -0.3 0.8 -1.5 1.5 -2.6 1.5 -1.1 0 -2 0.7 -2 1.5 0 0.8 -0.7 1.5 -1.5 1.5 -0.8 0 -1.5 0.4 -1.5 0.9 0 0.5 -2.5 1.9 -5.5 3 -6.2 2.3 -11.9 2.8 -11.3 0.9z"/>
  <path d="M110 22.8 c0 -2.6 2.8 -11.7 4.1 -13.6 2.7 -3.7 8 -9.4 8.5 -9 0.2 0.3 -0.5 3.1 -1.6 6.3 -1.1 3.2 -2 6.7 -2 7.7 0 1 -1.8 3.7 -3.9 5.8 -4.2 4.3 -5.1 4.7 -5.1 2.8z"/>
 </g>
 <g fill="#ffd22a">
  <path d="M139 43.2 c0 -2.2 28.1 -21.1 43.4 -29.3 l9.9 -5.2 -6.4 6.4 c-4 4 -7.8 9 -9.9 13.2 -2.6 5.3 -3.8 6.7 -5.6 6.7 -1.5 0 -2.4 -0.7 -2.6 -2.1 -0.3 -1.9 -1.2 -1.5 -9.5 4.5 -8.4 6 -9.6 6.6 -14.3 6.6 -2.7 0 -5 -0.4 -5 -0.8z"/>
  <path d="M110.3 22.3 c3.2 -11.3 4.1 -13.2 8.2 -17.8 l4.4 -5 -2.5 8.5 c-3.4 11.2 -4.3 12.9 -7.7 14.7 -2.7 1.3 -2.8 1.3 -2.4 -0.4z"/>
 </g>
 <g fill="#d9cf59">
  <path d="M89.2 174 c0 -2.9 0.3 -4.8 0.9 -4.5 0.5 0.4 0.9 1.5 0.9 2.6 0 1.2 0.4 1.7 1.1 1.3 0.6 -0.3 0.3 0.8 -0.5 2.5 -0.9 1.7 -1.8 3.1 -2 3.1 -0.1 0 -0.3 -2.3 -0.4 -5z"/>
  <path d="M78.8 158.6 c-1 -0.7 -1.8 -2.2 -1.7 -3.2 0 -1.4 0.2 -1.5 0.6 -0.4 0.3 0.8 1.5 2.3 2.7 3.2 2.4 2 1 2.4 -1.6 0.4z"/>
  <path d="M84.2 154.9 c-0.9 -1.1 -3.4 -3 -5.4 -4.1 -3.3 -1.9 -4.9 -3.8 -3.3 -3.8 1.1 0 11.5 8.3 11.5 9.1 0 1.4 -0.9 1 -2.8 -1.2z"/>
  <path d="M65.3 139.6 c-4.1 -2.7 -4.2 -4.6 -0.3 -4.6 3.2 0 4.4 1.5 3.8 4.8 -0.3 1.9 -0.4 1.9 -3.5 -0.2z"/>
  <path d="M169.5 97 c-6 -2.1 -8.4 -3.4 -9.5 -5.4 -2.5 -4.4 -0.7 -4.8 20 -4.2 16.9 0.5 19.1 0.4 25 -1.5 7.8 -2.5 16.6 -2.8 24 -0.7 l5.5 1.5 -8 2.5 c-4.4 1.4 -15 4 -23.5 5.7 -8.5 1.7 -17.1 3.5 -19 4.1 -4.6 1.3 -5.1 1.2 -14.5 -2z m17.5 -3 c1.4 -0.8 -0.3 -1.1 -11.9 -2.4 l-4.5 -0.5 4 2.4 c3.9 2.4 8.7 2.6 12.4 0.5z"/>
  <path d="M132 80.5 c0 -3.3 0.2 -3.5 3.5 -3.5 3.3 0 3.5 0.2 3.5 3.5 0 3.3 -0.2 3.5 -3.5 3.5 -3.3 0 -3.5 -0.2 -3.5 -3.5z"/>
  <path d="M118.2 81.8 c1.1 -3.3 6.8 -3.6 6.8 -0.3 0 1.1 -1 1.5 -3.6 1.5 -2.3 0 -3.4 -0.4 -3.2 -1.2z"/>
  <path d="M116.2 63.4 c0.2 -2 1.6 -3.4 5.5 -5.6 6.2 -3.5 16.3 -5.1 16.3 -2.5 0 1 -1.7 1.9 -4.9 2.7 -2.8 0.6 -6.9 2.4 -9.3 3.9 -6.9 4.3 -8 4.5 -7.6 1.5z"/>
  <path d="M145 55 c0 -1.1 0.6 -2 1.3 -2 0.7 0 1.8 -0.9 2.5 -2 0.7 -1.1 2.1 -2 3.2 -2 1.1 0 2 -0.7 2 -1.5 0 -0.8 0.9 -1.5 2 -1.5 1.1 0 2 -0.7 2 -1.5 0 -0.8 0.9 -1.5 2 -1.5 1.1 0 2 -0.7 2 -1.5 0 -1 1 -1.5 3.1 -1.5 2.9 0 3 0.2 1.8 1.8 -0.8 0.9 -2.2 2.3 -3.2 3 -1 0.8 -4.8 3.8 -8.5 6.8 -7.1 5.7 -10.2 6.7 -10.2 3.4z"/>
  <path d="M137 44.4 c0 -1.5 3.7 -3.3 6.7 -3.4 1.7 0 3.5 -0.4 3.8 -1 1.2 -2 2.5 -0.9 2.5 2 l0 3 -6.5 0 c-3.6 0 -6.5 -0.3 -6.5 -0.6z"/>
  <path d="M153.2 36.8 c0.3 -0.7 2.6 -2.8 5.1 -4.6 l4.7 -3.4 0 3.6 c0 2.5 -0.4 3.6 -1.5 3.6 -0.8 0 -1.5 0.5 -1.5 1 0 0.6 -1.6 1 -3.6 1 -2.4 0 -3.4 -0.4 -3.2 -1.2z"/>
  <path d="M168 32.6 c0 -2.6 0.5 -3.5 2.1 -3.9 1.7 -0.5 2 -0.2 1.6 1.5 -0.5 1.6 -0.2 1.9 1.3 1.5 1.8 -0.5 1.8 -0.3 0.3 1.9 -0.8 1.3 -2.4 2.4 -3.4 2.4 -1.5 0 -1.9 -0.7 -1.9 -3.4z"/>
  <path d="M110 23.6 c0 -0.3 1.4 -1.2 3 -2.1 1.7 -0.9 3 -1.3 3 -1.1 0 0.3 -1.3 1.2 -3 2.1 -1.6 0.9 -3 1.3 -3 1.1z"/>
 </g>
 <g fill="#a7dc7e">
  <path d="M90.2 174.8 c-1.4 -1.4 -1.7 -5.2 -0.3 -4.4 0.7 0.5 2.2 5.6 1.7 5.6 -0.1 0 -0.7 -0.5 -1.4 -1.2z"/>
  <path d="M117 96.8 c0.1 -4.3 2.3 -7 9 -10.4 l5.5 -2.9 -6.2 -0.3 c-4.7 -0.2 -6.3 -0.7 -6.3 -1.7 0 -0.8 0.8 -1.6 1.8 -1.6 0.9 -0.1 2.4 -0.3 3.2 -0.3 0.8 -0.1 3.1 -1.1 5 -2.4 1.9 -1.2 4.9 -2.2 6.6 -2.2 4.7 0 9.4 1.9 9.4 3.9 0 0.9 -3 4.9 -6.8 8.9 -6.5 7 -6.9 7.2 -11.7 7.4 -3.8 0.1 -4.1 0.2 -1.5 0.5 7.6 0.7 10 1.4 10 2.8 0 1.2 -1.8 1.5 -9 1.5 l-9 0 0 -3.2z"/>
  <path d="M112 67.4 c0 -1.6 6.6 -12.8 9.4 -15.9 3.3 -3.6 13.7 -8.3 20.9 -9.2 3.3 -0.5 3.7 -0.3 3.7 1.6 0 1.2 -0.1 2.1 -0.3 2.1 -0.1 0 -3.8 1.6 -8.2 3.6 l-8 3.5 7 -0.6 c8.7 -0.8 11.5 -2.6 23.6 -14.5 8.8 -8.8 12.7 -11.2 11.4 -7 -0.5 1.6 -0.3 1.9 1.2 1.3 1.7 -0.7 1.7 -0.6 -0.1 2.2 -3.1 4.9 -6.6 8.3 -16 15.6 l-9 6.9 -7 0 c-8.5 0.1 -12.5 1.4 -20.9 6.9 -6.2 4 -7.7 4.7 -7.7 3.5z"/>
 </g>
 <g fill="#fdd450">
  <path d="M78.3 149.9 c-3.3 -2.1 -4 -2.9 -2.5 -2.9 0.8 0.1 7 5 6.2 5 -0.3 0 -2 -1 -3.7 -2.1z"/>
  <path d="M72.8 144.9 c-2.7 -1.5 -2.2 -2.6 1.7 -3.3 2.6 -0.5 3.5 -1.2 3.5 -2.7 0 -1.3 1.5 -2.6 4.8 -4.2 2.6 -1.2 4.9 -2.5 5 -2.9 0.2 -0.5 1 -0.8 1.8 -0.8 0.8 0 1.4 -0.4 1.4 -1 0 -0.5 0.9 -1 2 -1 1.1 0 2.3 -0.7 2.6 -1.5 0.9 -2.2 3.1 -1.8 3.7 0.7 0.7 2.6 0.1 3.8 -1.9 3.8 -1.7 0 -15.6 8.1 -15 8.7 0.2 0.3 3 1.3 6.3 2.3 l5.8 1.8 -8 -0.1 c-4.4 0 -8.9 0.2 -10 0.6 -1.1 0.3 -2.8 0.2 -3.7 -0.4z"/>
  <path d="M61.8 132.3 c-0.6 -2.8 0.2 -5.3 1.8 -5.3 0.9 0 1.4 1.1 1.4 3.5 0 3.7 -2.4 5 -3.2 1.8z"/>
  <path d="M62 124.8 c0 -3 1.3 -5.8 2.6 -5.8 0.9 0 1.4 1.2 1.4 3.5 0 2.8 -0.4 3.5 -2 3.5 -1.1 0 -2 -0.6 -2 -1.2z"/>
  <path d="M65 116.3 c0 -3.5 10.9 -12.3 15.2 -12.3 0.8 0 4.3 -1.7 7.9 -3.9 3.5 -2.1 7.5 -4.2 8.8 -4.6 2.3 -0.7 2.3 -0.5 -1.1 4.1 -1.9 2.7 -3.8 6.6 -4.2 8.7 -0.9 4.6 -3.6 5.2 -3.6 0.7 0 -1.6 -0.3 -3 -0.6 -3 -1.4 0 -13.9 5.4 -14.2 6.2 -0.2 0.4 -1 0.8 -1.8 0.8 -0.8 0 -1.4 0.9 -1.4 2 0 1.5 -0.7 2 -2.5 2 -1.4 0 -2.5 -0.3 -2.5 -0.7z"/>
  <path d="M31 107.5 c-0.6 -0.8 -1 -2 -0.8 -2.6 0.2 -0.6 1.2 0 2.1 1.5 1.8 2.7 0.8 3.7 -1.3 1.1z"/>
  <path d="M64.5 104.4 c1 -5.4 4.8 -14.7 6.3 -15.2 0.8 -0.2 1.2 0.8 1.2 3.2 0 2 -0.4 3.6 -1 3.6 -0.5 0 -1 0.7 -1 1.5 0 0.8 0.5 1.5 1 1.5 0.6 0 1 -0.7 1 -1.5 0 -1 1.1 -1.5 3.5 -1.5 2.8 0 3.5 -0.4 3.5 -1.9 0 -1 0.7 -2.2 1.6 -2.5 2.3 -0.9 7.4 -0.7 7.4 0.2 0 0.4 -4.3 3.2 -9.6 6.2 -5.2 3 -10.7 6.5 -12.1 7.8 l-2.5 2.3 0.7 -3.7z"/>
  <path d="M105.3 97.9 c2.1 -2.4 6.1 -7.4 9 -11.1 5.2 -6.9 8.7 -8.7 8.7 -4.7 0 1.2 -0.8 2.3 -2 2.6 -1.1 0.3 -2 1.4 -2 2.4 0 1.1 -0.7 1.9 -1.5 1.9 -0.8 0 -1.5 0.9 -1.5 2 0 1.1 -0.7 2 -1.5 2 -0.8 0 -1.5 0.8 -1.5 1.8 0 2.3 -3 5.2 -5.4 5.2 -0.9 0 -2.7 0.5 -3.9 1.2 -1.6 0.8 -1.1 -0.1 1.6 -3.3z"/>
  <path d="M126.8 100.3 c-1 -0.2 -1.8 -1.1 -1.8 -1.9 0 -1.1 1.5 -1.4 6 -1.4 3.3 0 6 0.2 6 0.4 0 0.3 -0.7 1.2 -1.6 2 -1.5 1.5 -4.9 1.9 -8.6 0.9z"/>
  <path d="M172 96.6 c-6.6 -3.5 -9.1 -5.9 -7.6 -7.3 2 -2 33.6 0.7 33.6 2.9 0 1.6 -14.9 7.7 -19 7.8 -0.3 0 -3.4 -1.5 -7 -3.4z"/>
  <path d="M91 88.5 c0 -2.1 0.5 -2.5 3 -2.5 2 0 3 -0.5 3 -1.5 0 -0.8 0.9 -1.5 2 -1.5 1.1 0 2 -0.7 2 -1.5 0 -0.8 0.9 -1.5 2 -1.5 1.8 0 2 -0.7 2 -6 0 -4.4 0.4 -6 1.4 -6 2.7 0 3.6 9.2 1.2 12.6 -1.8 2.6 -8 6.9 -12.8 8.9 l-3.8 1.5 0 -2.5z"/>
  <path d="M72 85.2 c0 -2.5 17.3 -23.5 20.9 -25.3 1.4 -0.7 3.8 -2.2 5.4 -3.2 l2.7 -1.8 0 3 c0 2.4 -0.4 3.1 -2 3.1 -1.1 0 -2 0.5 -2 1 0 0.6 -0.6 1 -1.3 1 -0.7 0 -1.8 0.9 -2.5 2 -0.7 1.1 -2.1 2 -3.1 2 -1.4 0 -2.1 0.8 -2.3 2.8 -0.2 2.1 -0.9 2.8 -3 3 -2.4 0.3 -2.8 0.8 -2.8 3.3 0 1.9 -0.5 2.9 -1.5 2.9 -0.8 0 -1.5 0.9 -1.5 2 0 1.1 -0.4 2 -1 2 -0.5 0 -1 0.7 -1 1.5 0 0.9 -0.9 1.5 -2.5 1.5 -1.4 0 -2.5 -0.4 -2.5 -0.8z"/>
  <path d="M51.7 79.9 c-0.7 -1.9 -2.9 -7.9 -4.7 -13.4 -1.8 -5.5 -4.1 -11.6 -5.1 -13.6 -1.5 -3 -1.8 -7.3 -0.9 -12.9 0.2 -1.4 2 3.3 3 7.6 1.3 5.9 6.5 24.2 8.7 30.2 1.8 5.2 1 6.9 -1 2.1z"/>
  <path d="M103.5 60.5 c-0.5 -4.4 -0.3 -7.5 0.5 -9.5 2 -4.7 3 -3.5 3 3.4 0 3.5 0.3 7.8 0.6 9.5 0.6 2.7 0.4 3.1 -1.4 3.1 -1.8 0 -2.1 -0.8 -2.7 -6.5z"/>
 </g>
 <g fill="#c2eb83">
  <path d="M118 94.5 c0 -2.4 0.5 -3.5 1.5 -3.5 0.8 0 1.5 -0.6 1.5 -1.4 0 -0.7 2.6 -2.5 5.8 -3.9 3.1 -1.5 5.1 -2.7 4.5 -2.7 -2 0 -1.5 -2.7 0.6 -3.3 2.4 -0.6 4.1 1 4.1 3.9 0 1.6 -1.5 2.9 -6.2 5.4 -3.5 1.8 -7.1 4.2 -8 5.4 -1.6 2 -1.6 2.1 1 2.7 2.4 0.6 2.3 0.7 -1 0.8 -3.7 0.1 -3.8 0 -3.8 -3.4z"/>
  <path d="M119 59.8 c0 -2.2 3.8 -7.6 6.2 -8.9 3.4 -1.9 17 -8 19.3 -8.6 1.1 -0.4 2.2 -1 2.6 -1.4 1.4 -2.2 11.3 -8.8 12.3 -8.2 0.6 0.3 0.8 0.2 0.3 -0.2 -0.7 -0.8 6.8 -6.5 8.6 -6.5 0.4 0 0.7 0.9 0.7 1.9 0 1.1 0.7 2.1 1.6 2.3 3.1 0.6 -12.5 17.3 -21.6 23 -1.4 0.9 -5.6 2 -9.5 2.3 -3.8 0.4 -9.6 1.8 -12.7 3.1 -6.5 2.7 -7.8 2.9 -7.8 1.2z"/>
  <path d="M105.1 48.8 c1.7 -3.4 1.9 -3.4 1.9 -0.5 0 1.8 -0.5 2.7 -1.5 2.7 -1.3 0 -1.4 -0.4 -0.4 -2.2z"/>
 </g>
 <g fill="#ffed47">
  <path d="M87 134.1 c0 -1.7 0.3 -3.1 0.8 -3.1 0.4 0 2 -1 3.5 -2.3 l2.9 -2.2 -3.1 -3.9 c-3.4 -4.3 -4.4 -10.6 -1.6 -10.6 0.8 0 1.5 0.6 1.5 1.4 0 0.8 1.8 3.6 4 6.1 4.5 5.2 5.6 11.1 2.3 12.1 -2 0.6 -4.8 2.1 -8 4.2 -2.2 1.4 -2.3 1.3 -2.3 -1.7z"/>
  <path d="M62.4 123.3 c1 -5.1 5.5 -12.3 9.4 -15 1.8 -1.2 5.6 -2.9 8.5 -3.9 2.9 -0.9 7.1 -3 9.4 -4.5 2.3 -1.6 4.4 -2.9 4.7 -2.9 1.1 0 0.6 2.6 -1.4 6.5 -1.1 2.2 -2 4.5 -2 5.2 0 0.7 -0.7 1.3 -1.5 1.3 -0.9 0 -1.5 -1 -1.5 -2.6 0 -2.3 -0.1 -2.4 -1.6 -1 -0.8 0.9 -2.2 1.6 -3.1 1.6 -0.8 0 -3.7 1.2 -6.4 2.7 -4.2 2.3 -5.4 3.6 -8.2 9.4 -2.2 4.7 -3.8 6.8 -5.1 6.8 -1.6 0.1 -1.7 -0.4 -1.2 -3.6z"/>
  <path d="M65.5 103.7 c-1.2 -2.9 8.1 -23.7 10.5 -23.7 1.7 0 1.1 5.7 -0.9 9.2 -1 1.8 -2.2 4.4 -2.6 5.8 -0.7 2.2 -0.6 2.3 0.9 0.8 0.9 -0.9 2.6 -2 3.9 -2.4 1.2 -0.4 2.4 -1 2.7 -1.4 1.1 -1.7 9.1 -5 12 -5 4.6 0 3.6 1.7 -2.9 4.9 -5.5 2.8 -12.4 6.7 -19.9 11.3 -2.6 1.6 -3.3 1.7 -3.7 0.5z"/>
  <path d="M119.5 100.3 c-6.6 -0.2 -12.4 -0.8 -12.8 -1.2 -1.3 -1.3 12.5 -18.5 15.1 -18.9 3.5 -0.5 2.7 2.2 -2.3 8.4 -2.5 3 -4.5 5.9 -4.5 6.3 0 1.2 6.2 2.1 14.3 2.1 3.7 0 6.7 0.4 6.7 0.8 0 1.2 -2.3 3.2 -3.4 3 -0.6 -0.1 -6.5 -0.4 -13.1 -0.5z"/>
  <path d="M147 41.2 c0 -0.9 12.7 -10.3 19 -14.1 3.6 -2.1 7 -2.8 7 -1.2 0 3.6 -2.5 7 -6.1 8.4 -4.4 1.7 -5.1 0.8 -2.3 -3.2 l1.6 -2.3 -4.1 2.1 c-2.2 1.2 -6.3 4.1 -9.1 6.6 -5.2 4.6 -6 5.1 -6 3.7z"/>
 </g>
 <g fill="#ffff52">
  <path d="M87 134.1 l0 -2.9 -8.5 0.6 -8.5 0.5 0 -3.9 c0.1 -2.1 0.7 -5 1.5 -6.4 2 -3.5 2 -3.6 -2.5 -3.2 -2.2 0.2 -4 0.1 -4 -0.3 0 -0.4 1 -2.5 2.2 -4.6 2.1 -3.8 4.3 -5.2 17.1 -10.8 2.7 -1.2 5.3 -1.9 5.8 -1.6 0.5 0.4 0.9 3.7 0.9 7.5 0 5.8 0.4 7.3 2.5 9.8 5.4 6.4 5.2 10.5 -0.5 13.9 -1.7 0.9 -3 2 -3 2.4 0 0.4 -0.7 0.9 -1.5 1.3 -1.1 0.4 -1.5 -0.2 -1.5 -2.3z"/>
  <path d="M69.1 101 c-2 -1.2 -0.8 -6.9 2.9 -14.6 2.4 -5 3.5 -6.4 5.3 -6.4 1.5 0 3.9 -2.1 7.5 -6.5 4.6 -5.8 5.6 -6.5 8.7 -6.5 3.2 0 3.5 0.2 3.5 3 0 1.7 -1.1 5.3 -2.5 8 -2.9 5.6 -3.2 8 -1 8 3.5 0 1 3 -4.7 5.8 -3.5 1.7 -9 4.6 -12.3 6.6 -4 2.3 -6.6 3.2 -7.4 2.6z"/>
  <path d="M118.3 99.1 c-3.9 -0.3 -7.5 -0.9 -7.8 -1.3 -1.4 -1.4 0.5 -5.4 5.3 -11.3 l4.8 -6 7.4 0 c7.3 0 7.5 0.1 7.5 2.5 0 2 -1.2 3.1 -6.4 6 -3.5 1.9 -7.1 4.5 -7.9 5.8 l-1.4 2.2 8.3 0 c5.7 0.1 7.9 0.4 6.8 1 -2.4 1.4 -8.6 1.8 -16.6 1.1z"/>
 </g>
 <g fill="#fcef65">
  <path d="M91 162.8 c0 -2.5 0.3 -2.9 1 -1.8 1.3 2 1.3 5 0 5 -0.5 0 -1 -1.5 -1 -3.2z"/>
  <path d="M84.8 144.3 c-5.7 -0.4 -5.8 -0.5 -5.8 -3.3 0 -2.6 0.4 -3 2.7 -3 2.5 0 2.6 0.1 0.8 1.4 -1.8 1.3 -1.4 1.6 4.5 3.4 3.6 1.1 5.8 2 5 1.9 -0.8 0 -4.1 -0.2 -7.2 -0.4z"/>
  <path d="M77 131 c0 -0.5 -1.6 -1 -3.5 -1 -3.3 0 -3.5 -0.2 -3.5 -3.5 0 -2.8 0.4 -3.5 2 -3.5 1.5 0 2 -0.7 2 -2.5 0 -1.8 -0.5 -2.5 -2 -2.5 -1.3 0 -2.6 1.5 -4.2 5 -1.5 3.2 -2.9 5 -4 5 -2.3 0 -2.3 -2.4 0 -7.3 1.5 -3.4 2.6 -4.2 9.7 -7.2 4.4 -1.8 8.2 -3.1 8.4 -3 0.2 0.2 -1.8 4.2 -4.3 8.8 -2.5 4.7 -4.6 8.8 -4.6 9.2 0 0.4 2.5 0.5 5.5 0.1 5.1 -0.6 5.5 -0.5 5.5 1.4 0 1.6 -0.7 2 -3.5 2 -1.9 0 -3.5 -0.4 -3.5 -1z"/>
  <path d="M176.3 95.3 c-0.7 -0.2 -1.3 -1.1 -1.3 -1.9 0 -1.6 6.6 -2 8.9 -0.5 3.3 2.1 -3.3 4.2 -7.6 2.4z"/>
  <path d="M89.3 88.5 l-3.2 -1.4 2.3 -5.2 c2.8 -6.5 4.6 -7.4 4.6 -2.5 0 2.5 -0.4 3.6 -1.5 3.6 -2.7 0 -1.6 1.8 1.5 2.5 3.2 0.7 4 2.9 1.4 3.9 -0.9 0.3 -1.6 0.6 -1.7 0.6 -0.1 -0.1 -1.6 -0.7 -3.4 -1.5z"/>
  <path d="M75.1 83.1 c-1.9 -1.2 -0.4 -3.1 2.5 -3.1 2.6 0 3.3 -1.7 0.9 -2.2 -1.2 -0.2 -0.9 -1.1 1.4 -3.8 l3 -3.5 0.2 4 c0.2 3.1 0.3 3.4 0.6 1.3 0.4 -2.4 0.9 -2.8 3.5 -2.8 2.3 0 2.8 0.3 2.1 1.3 -6.6 8.5 -7.8 9.7 -10.2 9.7 -1.4 0 -3.2 -0.4 -4 -0.9z"/>
  <path d="M53.1 82.9 c-0.1 -0.4 -0.8 -2.3 -1.6 -4.3 -0.8 -2 -1.3 -3.6 -1 -3.6 0.9 0 3.6 6.2 3.1 7.3 -0.2 0.7 -0.5 0.9 -0.5 0.6z"/>
 </g>
 <g fill="#ffff8f">
  <path d="M89.7 173.7 c-1.1 -2.9 -0.9 -4.3 0.4 -3 0.6 0.6 0.9 1.9 0.7 2.9 -0.3 1.8 -0.4 1.8 -1.1 0.1z"/>
  <path d="M91.8 167.7 c-0.5 -1 -0.8 -3.1 -0.8 -4.5 0.1 -2.4 0.2 -2.5 1.1 -0.9 0.6 1 0.9 3 0.7 4.5 -0.2 2.3 -0.4 2.4 -1 0.9z"/>
  <path d="M71.5 143.6 c-1.6 -0.7 -3.9 -2.3 -4.9 -3.5 -1.1 -1.1 -2.5 -2.1 -3.3 -2.1 -2.3 0 -1.6 -11.7 1 -17 2 -3.9 3 -4.7 9.1 -7.2 3.9 -1.6 7.3 -2.7 7.7 -2.6 0.3 0.2 -1.3 3.8 -3.7 8.2 -2.4 4.3 -4.4 8.3 -4.4 8.8 0 0.6 3.2 0.7 8.5 0.3 l8.5 -0.7 0 3.9 c0 3.7 -0.3 4 -4.6 6.2 -5.1 2.4 -4.9 3.4 0.6 4.9 l3.5 1 -4.6 0.1 c-2.6 0.1 -5.9 0.3 -7.5 0.6 -1.6 0.3 -4.2 -0.1 -5.9 -0.9z"/>
  <path d="M31.2 107.8 c-0.7 -0.7 -1.2 -1.9 -1.2 -2.7 0 -1.1 0.5 -0.8 1.6 0.7 1.8 2.5 1.5 3.9 -0.4 2z"/>
  <path d="M90.3 88.7 c-1.8 -0.5 -3.3 -1.6 -3.3 -2.3 0 -0.7 1.6 -4.8 3.5 -9.1 l3.5 -7.8 -3.8 4 c-2 2.2 -4.9 5.5 -6.3 7.4 -2.4 3.1 -3 3.3 -6.3 2.7 -3.8 -0.7 -4.5 -2.8 -1.1 -3.5 1.8 -0.3 8.5 -6.7 8.5 -8 0 -0.4 1.7 -2.4 3.8 -4.4 2.8 -2.7 4.6 -3.7 7 -3.7 2.9 0 3.2 0.3 3.2 2.9 0 1.6 -1.6 6.3 -3.5 10.4 l-3.4 7.6 4.9 -0.6 c5.3 -0.6 6.4 0.4 2.9 2.5 -3.7 2.4 -6.4 2.9 -9.6 1.9z"/>
  <path d="M50 74.9 c-2.3 -6.1 -2.8 -8.5 -2 -9.3 0.6 -0.6 1 -0.7 0.9 -0.1 -0.1 0.6 0 1.7 0.3 2.5 1.7 4.4 4.6 14.5 4.3 14.8 -0.2 0.2 -1.7 -3.4 -3.5 -7.9z"/>
  <path d="M104 64.5 c0 -4 2.4 -4.9 3.4 -1.2 1 3.7 0.7 4.7 -1.4 4.7 -1.6 0 -2 -0.7 -2 -3.5z"/>
  <path d="M46 63.8 c0 -1 -1.1 -4.2 -2.4 -7.1 -1.5 -3.5 -2.4 -7.3 -2.4 -10.6 0 -2.9 0.3 -5 0.5 -4.7 1.3 1.3 5.9 21.7 5.1 22.8 -0.5 1 -0.8 0.8 -0.8 -0.4z"/>
  <path d="M103 53.5 c0 -1.2 2.4 -5.5 3.2 -5.5 0.9 0 1 0.7 0.2 3.8 -0.4 1.2 -1.3 2.2 -2 2.2 -0.8 0 -1.4 -0.2 -1.4 -0.5z"/>
 </g>
 <g fill="#feffa6">
  <path d="M68.5 141.5 c-2.2 -1.9 -4.6 -3.5 -5.2 -3.5 -0.7 0 -1.3 -1.2 -1.3 -2.6 l0 -2.6 3.3 2.1 c1.7 1.2 5.8 3.6 9.1 5.3 4.7 2.6 5.5 3.3 4 3.9 -3.7 1.5 -6 0.9 -9.9 -2.6z"/>
  <path d="M89.3 88 c-1.3 -0.5 -2.3 -1.1 -2.3 -1.3 0 -0.3 2.1 -4.9 4.6 -10.3 l4.6 -9.9 -3.1 2.9 c-1.7 1.7 -5 5.4 -7.3 8.3 -3.8 4.7 -4.7 5.3 -8 5.3 -2.1 0 -3.8 -0.4 -3.8 -0.8 0 -1.8 16.4 -20.5 19.3 -22 1.8 -1 5.5 -4 8.2 -6.8 l5 -5.1 0.1 5.1 c0 2.8 0.4 10.1 0.9 16.1 l0.8 11.1 -3.4 2.5 c-7.2 5.5 -11.1 6.7 -15.6 4.9z"/>
 </g>
</svg>